<?xml version="1.0" encoding="UTF-8" standalone="no"?>
<!-- Created with Inkscape (http://www.inkscape.org/) -->

<svg
   xmlns:dc="http://purl.org/dc/elements/1.1/"
   xmlns:cc="http://creativecommons.org/ns#"
   xmlns:rdf="http://www.w3.org/1999/02/22-rdf-syntax-ns#"
   xmlns:svg="http://www.w3.org/2000/svg"
   xmlns="http://www.w3.org/2000/svg"
   xmlns:sodipodi="http://sodipodi.sourceforge.net/DTD/sodipodi-0.dtd"
   xmlns:inkscape="http://www.inkscape.org/namespaces/inkscape"
   width="210mm"
   height="297mm"
   id="svg2"
   version="1.1"
   inkscape:version="0.48.4 r9939"
   sodipodi:docname="effect.svg">
  <defs
     id="defs4" />
  <sodipodi:namedview
     id="base"
     pagecolor="#ffffff"
     bordercolor="#666666"
     borderopacity="1.0"
     inkscape:pageopacity="0.0"
     inkscape:pageshadow="2"
     inkscape:zoom="0.98994949"
     inkscape:cx="150.07458"
     inkscape:cy="640.48577"
     inkscape:document-units="px"
     inkscape:current-layer="layer1"
     showgrid="false"
     inkscape:window-width="1148"
     inkscape:window-height="1124"
     inkscape:window-x="1"
     inkscape:window-y="0"
     inkscape:window-maximized="0" />
  <metadata
     id="metadata7">
    <rdf:RDF>
      <cc:Work
         rdf:about="">
        <dc:format>image/svg+xml</dc:format>
        <dc:type
           rdf:resource="http://purl.org/dc/dcmitype/StillImage" />
        <dc:title></dc:title>
      </cc:Work>
    </rdf:RDF>
  </metadata>
  <g
     inkscape:label="Calque 1"
     inkscape:groupmode="layer"
     id="layer1">
    <path
       sodipodi:type="arc"
       style="fill:#0044aa;stroke:#5599ff"
       id="path2987"
       sodipodi:cx="356.07877"
       sodipodi:cy="376.57013"
       sodipodi:rx="50.002552"
       sodipodi:ry="51.51778"
       d="m 406.08132,376.57013 a 50.002552,51.51778 0 1 1 -100.00511,0 50.002552,51.51778 0 1 1 100.00511,0 z"
       transform="translate(-292.14286,-238.57143)" />
    <path
       style="fill:#0044aa;stroke:#5599ff;stroke-width:0.17857143"
       d="m 61.766324,188.87596 c -6.02796,-0.38907 -11.26884,-1.55802 -16.15599,-3.6035 -10.50098,-4.3951 -18.81662,-11.86422 -24.61895,-22.11278 -3.65545,-6.45656 -5.93556,-14.48868 -6.34944,-22.36704 -0.80638,-15.34996 5.04175,-30.09898 16.00215,-40.35752 7.88337,-7.37855 17.35101,-11.80131 27.99723,-13.07878 2.31287,-0.27753 8.4514,-0.2742 10.625,0.006 11.12564,1.43297 20.54603,5.91323 28.36173,13.48861 4.411536,4.27589 7.666466,8.73585 10.303346,14.11783 2.7227,5.55715 4.14309,10.23052 5.02032,16.51786 0.42914,3.07576 0.42758,9.92014 -0.003,13.03571 -0.86614,6.26754 -2.30375,10.9968 -5.02113,16.51786 -6.0663,12.32524 -16.641746,21.51166 -29.494616,25.62064 -2.62162,0.83812 -6.52894,1.67454 -9.0774,1.94316 -2.06463,0.21762 -6.15947,0.36449 -7.58929,0.2722 l 0,0 z"
       id="path2989"
       inkscape:connector-curvature="0" />
    <path
       style="fill:#0044aa;stroke:#5599ff;stroke-width:0.17857143"
       d="m 58.373464,188.35939 c -13.57619,-1.67348 -25.39382,-8.6559 -33.69515,-19.90872 -4.97874,-6.74889 -7.9638,-14.04735 -9.37641,-22.92521 -0.34372,-2.16024 -0.40184,-3.22432 -0.40587,-7.43193 -0.005,-5.1133 0.0969,-6.29925 0.88884,-10.35714 0.8598,-4.40542 2.22846,-8.39958 4.38315,-12.79134 3.85993,-7.86742 9.87574,-14.68232 17.31259,-19.61223 5.93229,-3.93255 12.0314,-6.30455 19.375,-7.53513 2.84332,-0.47646 11.47953,-0.47675 14.19642,-4.7e-4 8.56075,1.50072 15.64407,4.54725 22.23215,9.56204 2.55059,1.94149 7.548586,6.98131 9.438086,9.51706 2.63586,3.53739 4.39847,6.61614 6.32347,11.04518 1.57803,3.63072 2.51718,6.79357 3.37486,11.36575 0.4792,2.55454 0.49645,2.85139 0.50135,8.62771 0.005,5.79785 -0.0104,6.06669 -0.49666,8.72687 -0.85866,4.69725 -1.75489,7.71114 -3.45565,11.62083 -4.95115,11.3817 -13.106036,20.11092 -23.762326,25.43587 -4.86386,2.43046 -11.1785,4.25953 -16.38742,4.7467 -2.62503,0.24551 -8.12497,0.20031 -10.44643,-0.0858 l 0,0 z"
       id="path2991"
       inkscape:connector-curvature="0" />
    <path
       style="fill:#0044aa;stroke:#5599ff;stroke-width:0.17857143"
       d="m 59.266324,188.27059 c -3.76247,-0.34529 -8.92116,-1.60905 -12.7969,-3.13493 -6.32326,-2.48947 -11.40114,-5.86238 -16.50029,-10.96007 -6.84177,-6.83981 -11.16007,-14.4395 -13.45055,-23.67135 -1.23338,-4.9712 -1.27012,-5.33015 -1.27012,-12.41071 0,-7.06958 0.039,-7.47876 1.16625,-12.23214 4.52629,-19.08674 19.98915,-34.01606 38.93497,-37.59154 4.57077,-0.86261 13.4037,-0.81418 17.61991,0.0966 8.60809,1.8595 15.8324,5.36344 21.92173,10.63249 5.289776,4.57721 9.397006,9.75261 12.299056,15.4977 2.41711,4.78505 3.71165,8.46892 4.88676,13.90618 l 0.49275,2.28 0,7.32143 0,7.32143 -0.50186,2.32143 c -1.40734,6.50978 -3.42704,11.69722 -6.60495,16.96429 -5.25683,8.71263 -12.964186,15.62181 -21.913116,19.64378 -3.6588,1.6444 -8.75808,3.1525 -12.6765,3.74903 -2.21555,0.3373 -9.11027,0.49553 -11.60714,0.26639 l 0,0 z"
       id="path2993"
       inkscape:connector-curvature="0" />
    <path
       style="fill:#0044aa;stroke:#5599ff;stroke-width:0.17857143"
       d="m 60.427034,188.15081 c -5.87644,-0.29484 -14.09545,-2.77619 -19.73214,-5.95721 -6.69864,-3.78032 -13.35868,-10.17258 -17.76146,-17.04731 -3.35827,-5.24379 -6.11231,-12.55217 -7.1639,-19.01078 -0.40074,-2.46125 -0.39001,-13.82309 0.0154,-16.33076 0.36128,-2.23455 1.33853,-6.06195 2.16949,-8.49685 5.10647,-14.96297 17.31042,-26.90697 32.20474,-31.51877 5.10662,-1.58119 8.2063,-1.95629 15.07545,-1.82433 5.36114,0.103 6.94775,0.29514 10.46026,1.26674 8.88669,2.45816 15.61751,6.34148 22.02404,12.70668 7.008576,6.96338 11.351126,14.91578 13.990006,25.61959 l 0.68238,2.76786 0,7.67857 0,7.67857 -0.67354,2.67858 c -1.43043,5.68863 -2.51957,8.75086 -4.49642,12.64215 -4.85343,9.55361 -12.493116,17.32409 -21.705036,22.07663 -3.67443,1.89568 -8.45382,3.50856 -13.2423,4.46883 -1.72271,0.34547 -8.11654,0.77628 -10.15056,0.68394 -0.34375,-0.0156 -1.10714,-0.0526 -1.69643,-0.0821 l 0,0 z"
       id="path2995"
       inkscape:connector-curvature="0" />
    <path
       style="fill:#0044aa;stroke:#5599ff;stroke-width:0.17857143"
       d="m 60.427034,187.97701 c -4.27664,-0.33816 -8.98729,-1.42901 -13.45,-3.11461 -4.40684,-1.66451 -8.4701,-3.99259 -12.35328,-7.07791 -2.1844,-1.73558 -6.67224,-6.2456 -8.46503,-8.50688 -4.61221,-5.81744 -7.90414,-12.79001 -9.66153,-20.46389 -0.69723,-3.04452 -0.8522,-5.60034 -0.75289,-12.41662 0.0995,-6.82677 0.17708,-7.41501 1.64892,-12.49688 2.49413,-8.61151 6.63958,-15.5838 13.08138,-22.00171 7.67387,-7.64541 18.42224,-12.81151 28.34529,-13.6239 4.36919,-0.35769 11.38897,-0.0854 14.35313,0.55686 5.21844,1.13062 10.8819,3.35502 15.20044,5.97017 3.53711,2.14194 7.71667,5.60177 10.66548,8.82882 6.339956,6.93822 9.771716,13.53134 12.454316,23.92735 l 0.80638,3.125 0,7.32143 0,7.32143 -0.80548,3.1071 c -1.10479,4.26164 -1.76063,6.31696 -2.88326,9.03576 -4.41117,10.68304 -12.823876,19.95017 -22.916006,25.24343 -4.25944,2.23405 -10.4829,4.27393 -14.73214,4.82878 -3.13641,0.40955 -8.21443,0.61982 -10.53572,0.43627 z"
       id="path2997"
       inkscape:connector-curvature="0" />
    <path
       style="fill:#0044aa;stroke:#5599ff;stroke-width:0.17857143"
       d="m 59.623464,187.71796 c -2.32426,-0.23341 -6.45625,-1.08458 -9.02599,-1.85931 -5.64196,-1.70093 -10.1255,-3.97344 -15.04762,-7.62695 -2.21047,-1.64075 -7.93249,-7.35968 -9.69698,-9.69174 -4.17803,-5.52195 -7.05631,-11.52789 -8.81458,-18.39286 -0.97104,-3.79131 -1.07727,-5.00841 -1.05984,-12.14286 0.02,-8.18362 0.17997,-9.44984 1.89515,-15 3.03813,-9.83109 9.04815,-18.53075 17.10701,-24.7628 5.92085,-4.5787 13.2365,-7.95027 20.06702,-9.24829 5.44974,-1.03563 14.63404,-0.86028 19.48655,0.37204 5.40776,1.37333 10.75376,3.6656 14.82143,6.35518 7.3388,4.85249 13.503686,11.66416 17.282626,19.09583 1.83552,3.60972 2.84363,6.30585 4.46376,11.93804 l 0.92461,3.21429 0.0556,7.62066 c 0.0631,8.64483 0.2006,7.49301 -1.66552,13.95049 -1.12735,3.90103 -2.12278,6.42977 -3.82281,9.71127 -2.40075,4.63405 -5.36854,8.66554 -9.187376,12.48025 -6.19486,6.18815 -12.69933,9.99734 -21.29344,12.47001 -2.58561,0.74391 -4.48917,1.10815 -7.02533,1.34424 -2.94568,0.27422 -7.60569,0.35916 -9.46429,0.17251 l 0,0 z"
       id="path2999"
       inkscape:connector-curvature="0" />
    <path
       style="fill:#0044aa;stroke:#5599ff;stroke-width:0.17857143"
       d="m 57.212754,187.19446 c -12.67323,-2.29482 -21.06463,-7.18677 -30.20852,-17.61072 -4.77876,-5.44775 -9.26963,-15.25015 -10.50001,-22.91878 -0.32474,-2.02404 -0.387,-13.17617 -0.091,-16.29774 0.28666,-3.02283 1.68395,-7.96139 3.42214,-12.09512 1.58049,-3.75869 4.42029,-8.50979 7.0445,-11.78571 1.58522,-1.97891 5.64022,-6.03672 7.56502,-7.57028 4.60911,-3.67222 10.93402,-7.01295 16.37751,-8.65036 4.49589,-1.35237 7.0977,-1.69375 12.90821,-1.69365 7.06523,1.2e-4 10.79151,0.64104 16.60714,2.85643 11.8116,4.49947 21.613176,13.73068 27.080106,25.50428 1.10422,2.37806 1.91139,4.60152 3.33852,9.19643 l 1.08152,3.48215 0.0635,6.77343 c 0.036,3.84265 -0.0155,7.5514 -0.11904,8.57142 -0.19355,1.90652 -1.36221,6.26645 -2.73161,10.19086 -1.54544,4.42889 -4.86984,10.33393 -7.97585,14.16729 -6.476896,7.99359 -14.026306,13.21671 -23.422606,16.2051 -4.79182,1.52399 -7.16514,1.86906 -13.47525,1.95921 -4.41801,0.0631 -5.22863,0.03 -6.96428,-0.28424 l 0,0 z"
       id="path3001"
       inkscape:connector-curvature="0" />
    <path
       style="fill:#0044aa;stroke:#5599ff;stroke-width:0.17857143"
       d="m 58.434314,187.20351 c -1.70596,-0.2423 -5.84609,-1.18099 -7.89522,-1.79007 -6.47401,-1.92433 -12.15129,-5.14774 -17.3442,-9.84759 -2.15353,-1.94905 -5.29354,-5.2041 -6.77759,-7.02589 -4.02906,-4.94601 -7.54103,-12.44664 -9.32266,-19.91072 -0.52467,-2.19809 -0.53428,-2.32747 -0.63042,-8.48214 -0.12286,-7.86596 0.0511,-10.31889 0.99698,-14.05753 1.66325,-6.57414 4.43537,-12.41871 8.68012,-18.30064 1.50585,-2.08665 6.88534,-7.56728 8.95988,-9.12833 6.21808,-4.67899 13.49678,-8.01064 20.45838,-9.36433 1.82722,-0.3553 2.5714,-0.39117 8.17103,-0.39379 5.68468,-0.003 6.34008,0.0294 8.48214,0.41472 6.81278,1.22559 13.78614,4.33774 19.82143,8.84614 2.64225,1.97378 7.49558,6.78617 9.464306,9.38447 2.70391,3.56859 5.16314,7.86302 6.70377,11.70643 0.31495,0.78572 1.21707,3.39732 2.00471,5.80357 l 1.43208,4.375 0.0818,5.98215 c 0.12943,9.46898 -0.13796,11.47178 -2.46562,18.46794 -1.43824,4.32284 -4.29263,9.8175 -7.10393,13.67491 -2.426926,3.33003 -6.743546,7.74821 -9.979916,10.21473 -6.46246,4.92521 -14.96807,8.45256 -22.28003,9.23972 -2.28389,0.24587 -10.14818,0.37715 -11.45701,0.19125 l 0,0 z"
       id="path3003"
       inkscape:connector-curvature="0" />
    <path
       style="fill:#0044aa;stroke:#5599ff;stroke-width:0.17857143"
       d="m 55.784184,186.49053 c -8.57506,-1.84833 -14.04595,-4.31795 -20.07783,-9.06335 -2.4391,-1.91888 -8.24824,-7.80086 -9.89597,-10.02005 -3.62087,-4.87665 -6.64612,-11.44693 -8.35839,-18.15289 -0.46516,-1.82176 -0.56958,-2.65125 -0.69685,-5.53571 -0.4644,-10.52528 -0.0438,-15.04819 1.96765,-21.16072 2.85377,-8.67212 7.64453,-15.87393 14.8178,-22.2752 5.49914,-4.90729 13.96672,-9.0953 21.60152,-10.68396 1.9694,-0.4098 2.39105,-0.43093 8.62407,-0.43228 7.11042,-0.002 8.18221,0.1036 12.018,1.17886 6.08256,1.70508 13.11888,5.3662 17.5,9.10556 3.94681,3.36867 7.285766,7.00422 9.628246,10.48349 3.158,4.69057 4.49795,7.51386 6.88107,14.49853 l 1.64504,4.82143 0.0971,5.71429 c 0.15284,8.99267 -0.18029,11.78987 -2.09705,17.60833 -1.53243,4.6518 -3.52948,8.86446 -6.11817,12.90595 -2.71128,4.23287 -8.056686,9.81882 -12.357696,12.91376 -4.09624,2.9476 -9.72423,5.6773 -14.64562,7.10347 -4.15719,1.2047 -7.03985,1.52749 -13.45366,1.50646 -4.50889,-0.0148 -4.87934,-0.0418 -7.07929,-0.51597 z"
       id="path3005"
       inkscape:connector-curvature="0" />
    <path
       style="fill:none;stroke:#2a7fff;stroke-width:1px;stroke-linecap:butt;stroke-linejoin:miter;stroke-opacity:1"
       d="m 12.142858,41.647891 c 0,0 65.71428,2.14286 134.285712,-18.57142 0,0 35,19.28571 124.28572,20 0,0 -72.14286,-2.14286 -125,17.85714 0,0 -63.571432,-19.28572 -133.571432,-19.28572 z"
       id="path3015"
       inkscape:connector-curvature="0" />
    <path
       style="fill:#80b3ff;stroke:#2a7fff;stroke-width:0.25253814"
       d="m 141.49266,59.101681 c -9.9097,-2.76245 -27.93206,-6.88252 -40.0273,-9.15059 -19.030892,-3.56863 -41.154872,-6.51187 -57.326152,-7.62633 -4.56238,-0.31442 -6.50314,-0.7149 -3.53554,-0.72955 2.00254,-0.01 10.01815,-0.59194 17.67767,-1.28365 28.25552,-2.55167 57.296192,-7.8034 81.988652,-14.82688 6.06929,-1.72634 6.10533,-1.7331 6.9448,-1.30302 1.49508,0.76594 7.57406,3.1913 10.69285,4.26617 19.31228,6.65588 46.84901,11.63778 75.49282,13.65807 7.89465,0.55682 10.65381,0.92355 7.30917,0.9715 -2.04884,0.0294 -10.23025,0.59802 -16.76327,1.16512 -27.7348,2.40752 -54.42213,7.65688 -74.35741,14.62598 -2.21405,0.774 -4.03233,1.39654 -4.04061,1.38341 -0.008,-0.0131 -1.83335,-0.53073 -4.05568,-1.15023 z"
       id="path3017"
       inkscape:connector-curvature="0" />
    <path
       style="fill:#80b3ff;stroke:#2a7fff;stroke-width:0.25253814"
       d="m 145.12517,59.909771 c -0.36762,-0.36762 -17.72091,-4.68515 -28.00244,-6.96707 -20.691392,-4.59231 -46.759572,-8.60041 -67.427682,-10.36731 -6.13944,-0.52485 -8.67666,-0.98743 -5.41601,-0.98743 3.46235,0 20.9933,-1.64799 31.04863,-2.91871 21.92006,-2.77009 40.458822,-6.41239 62.439442,-12.26743 l 8.64882,-2.30381 2.7154,1.16102 c 19.243,8.22777 48.08693,14.18746 81.50729,16.8409 6.8554,0.5443 9.41281,0.95269 6.1754,0.98616 -0.90931,0.009 -4.48904,0.24569 -7.95496,0.52509 -30.54932,2.4627 -55.40977,7.12044 -78.09624,14.63176 -5.8699,1.94348 -5.47713,1.82735 -5.63765,1.66683 l 0,0 z"
       id="path3019"
       inkscape:connector-curvature="0" />
    <path
       style="fill:#80b3ff;stroke:#2a7fff;stroke-width:0.25253814"
       d="m 144.52312,59.486501 c -4.19369,-1.33068 -25.33717,-6.40006 -34.47146,-8.2649 -18.217662,-3.7193 -37.914852,-6.68621 -56.631682,-8.53022 -3.85436,-0.37974 -7.00793,-0.78336 -7.00793,-0.89693 0,-0.11357 0.60164,-0.20649 1.33698,-0.20649 2.82222,0 21.54911,-1.87741 30.35656,-3.04331 21.15041,-2.79981 37.258312,-6.0312 60.530702,-12.14302 l 7.75023,-2.03537 3.74026,1.56091 c 18.06957,7.54097 45.03045,13.17731 76.85004,16.066 4.09743,0.37198 7.54048,0.75655 7.65122,0.8546 0.11074,0.0981 -1.19615,0.25628 -2.90419,0.35162 -10.22219,0.57055 -27.58697,2.63226 -39.80813,4.72639 -16.14721,2.76686 -25.82948,5.21208 -46.26665,11.68446 -0.20259,0.0642 -0.70927,0.008 -1.12595,-0.12374 l 0,0 z"
       id="path3021"
       inkscape:connector-curvature="0" />
    <path
       style="fill:#80b3ff;stroke:#2a7fff;stroke-width:0.25253814"
       d="m 139.82889,58.002541 c -4.30992,-1.17578 -19.19297,-4.7251 -26.36797,-6.28825 -15.098032,-3.28927 -36.137932,-6.60829 -55.602722,-8.77126 -4.74685,-0.52748 -8.57557,-1.04816 -8.50826,-1.15707 0.0673,-0.1089 0.65547,-0.1984 1.30703,-0.19888 0.65156,-4.8e-4 3.00292,-0.17277 5.22526,-0.38286 32.46522,-3.06923 54.404752,-7.00145 86.100462,-15.43174 l 4.27809,-1.13787 1.40401,0.55433 c 6.1456,2.4264 10.15218,3.89837 13.57222,4.98629 16.98997,5.40451 37.16433,9.15565 63.97204,11.89468 3.81964,0.39027 6.66069,0.77587 6.31345,0.8569 -0.34724,0.081 -2.44962,0.2756 -4.67195,0.43237 -7.8564,0.55425 -20.13586,2.02328 -30.55712,3.65564 -15.73312,2.46441 -27.41722,5.20209 -44.13605,10.34144 -3.41624,1.05015 -6.58832,1.89781 -7.04908,1.88368 -0.46075,-0.0141 -2.83648,-0.57095 -5.27941,-1.2374 l 0,0 z"
       id="path3023"
       inkscape:connector-curvature="0" />
    <path
       style="fill:#80b3ff;stroke:#2a7fff;stroke-width:0.25253814"
       d="m 138.33593,57.366511 c -27.61864,-6.96464 -48.220292,-10.76777 -77.442782,-14.29619 -8.25354,-0.99656 -10.60932,-1.46772 -7.3925,-1.4785 1.35605,-0.005 13.58388,-1.27044 20.82532,-2.15596 21.84662,-2.67152 41.372842,-6.51492 65.989322,-12.98889 l 5.89369,-1.55 5.59679,2.12827 c 8.11616,3.0863 13.06377,4.65366 21.20267,6.71683 13.66692,3.46448 30.2457,6.22162 50.37215,8.37716 2.95289,0.31625 5.28255,0.64962 5.17703,0.74081 -0.10551,0.0912 -1.89648,0.3027 -3.97992,0.47002 -12.77515,1.02597 -31.26326,3.67691 -43.56282,6.24631 -7.14739,1.4931 -15.87531,3.70458 -23.35978,5.91888 -7.03096,2.08013 -12.21735,3.52269 -12.60682,3.5065 -0.14995,-0.006 -3.1705,-0.74209 -6.71235,-1.63524 z"
       id="path3025"
       inkscape:connector-curvature="0" />
    <path
       style="fill:#80b3ff;stroke:#2a7fff;stroke-width:0.25253814"
       d="m 138.71474,57.216031 c -29.51508,-7.36711 -48.145422,-10.75348 -82.769382,-15.04468 -0.65975,-0.0818 -1.19955,-0.23018 -1.19955,-0.3298 0,-0.0996 1.05119,-0.25826 2.33598,-0.35254 5.65414,-0.4149 21.89783,-2.33145 29.35755,-3.46381 17.362772,-2.63562 32.902822,-5.89297 52.981052,-11.10537 l 6.76657,-1.75663 6.36542,2.37204 c 7.25852,2.70486 8.84762,3.23656 14.40524,4.81985 13.00055,3.70368 30.90044,6.98482 51.25823,9.39588 4.41805,0.52325 7.82732,1.02497 7.57614,1.11494 -0.25117,0.09 -2.50223,0.3598 -5.00236,0.59962 -6.25495,0.59998 -17.09426,1.98491 -23.88419,3.05165 -14.72721,2.31375 -24.50847,4.54253 -42.65961,9.72055 -4.8387,1.38034 -9.19283,2.54332 -9.38598,2.50698 -0.0463,-0.009 -2.81161,-0.69662 -6.14511,-1.52868 z"
       id="path3027"
       inkscape:connector-curvature="0" />
    <path
       style="fill:#e6e6e6;stroke:#4d4d4d"
       id="path3037"
       d="m 429.52436,54.563267 c 3.72557,-3.87872 7.51302,-7.72226 11.5608,-11.26792 4.06358,-3.67611 8.935,-6.44635 13.94699,-8.61948 0.56744,-0.27889 1.22038,-0.20493 1.81389,-0.34586 0.53224,-0.12639 1.04204,-0.37037 1.58395,-0.49518 1.28894,-0.23483 2.60357,-0.25296 3.90963,-0.27498 1.42352,-0.0145 2.84715,-0.008 4.27072,-0.006 1.41373,-0.0468 2.77648,-0.0322 4.15342,0.28806 1.23282,0.21856 2.43838,0.34682 3.64049,0.69766 1.26766,0.27856 2.42433,0.88368 3.52082,1.56205 1.11713,0.56647 2.08527,1.37184 3.06844,2.14013 1.21128,1.06707 2.44003,2.1174 3.62696,3.21012 0.98593,1.02356 1.93973,2.09038 2.83597,3.19459 0.89625,0.85141 1.5723,1.89748 2.36903,2.83453 0.79854,1.0654 1.38631,2.26914 2.04992,3.42044 0.60631,1.08613 1.15048,2.15067 1.44882,3.36504 0.225,1.17651 0.52137,2.34442 0.83193,3.50207 0.44823,1.35912 0.65974,2.76877 0.7849,4.189 -0.14745,-0.28374 0.17869,0.96469 0.16645,0.85188 -0.46705,-4.30717 -11.94315,7.14369 -8.43418,3.89273 1.03555,-0.87155 1.98485,-1.82908 3.02988,-2.69289 1.05394,-0.90422 2.20667,-1.66322 3.35342,-2.43765 3.69112,-2.85003 7.33934,-4.54767 11.75267,-7.03709 0.40999,-0.3985 0.98723,-0.43308 1.47436,-0.65679 0.50985,-0.23414 0.90193,-0.50991 1.4524,-0.68577 0.19274,-0.0414 0.39276,-0.0573 0.57821,-0.1241 0.16797,-0.0605 0.3143,-0.16948 0.47145,-0.25422 0.1694,-0.0683 0.33528,-0.14612 0.50821,-0.20495 0.57433,-0.19538 1.16701,-0.273 1.76524,-0.35117 1.26335,-0.1742 2.55909,0.002 3.72111,0.52627 1.14785,0.32798 1.99885,0.99088 2.7689,1.8831 0.85597,0.78858 1.63392,1.65162 2.37108,2.55153 0.6856,0.9613 1.36211,1.94984 2.19582,2.79053 0.73333,0.82108 1.21851,1.80871 1.79074,2.73674 0.68777,1.07779 0.90001,2.3203 1.03556,3.56739 0.21839,0.93222 0.20592,2.07731 1.08476,2.63473 1.12838,-0.11572 2.27661,-0.10864 3.37234,-0.41147 1.4098,-0.40046 2.86637,-0.54974 4.32359,-0.63792 1.53805,-0.22892 2.83361,0.23185 4.14532,0.98718 1.03903,0.78403 1.97183,1.67407 2.81086,2.66697 0.83887,1.27268 1.74609,2.49541 2.61304,3.74871 0.91071,1.41169 1.77886,2.83293 2.55266,4.32376 0.69072,1.3607 1.0988,2.83956 1.68122,4.2433 0.59636,1.22137 0.84588,2.53937 0.98704,3.87867 0.16085,1.35416 0.10166,2.68205 -0.1636,4.01428 -0.17851,1.16125 -0.97233,1.91961 -1.73953,2.72695 -3.24415,3.03622 -5.35665,3.54067 -10.78423,6.485073 -0.17687,0.0959 -0.40246,0.0449 -0.59441,0.10524 -0.17263,0.0543 -0.32608,0.15706 -0.48912,0.23559 -1.09018,0.32726 -2.03392,0.87997 -3.15777,1.11709 -1.02894,0.63154 -2.22075,0.76524 -3.39717,0.86772 -1.38965,0.29145 -2.72213,0.76132 -4.09888,1.09969 -1.46205,0.20319 -2.85888,0.65811 -4.31695,0.89165 -1.33221,0.0284 -2.5569,0.52385 -3.86016,0.73877 -1.34625,0.17896 -2.70693,0.18979 -4.06267,0.20348 -1.42591,0.008 -2.85185,0.002 -4.27777,-1e-5 -1.42962,-0.002 -2.85923,-0.003 -4.28885,-0.003 -1.43305,-0.35234 -2.92581,-0.39377 -4.34991,-0.76223 -1.36472,-0.46159 -2.8342,-0.38596 -4.20697,-0.76595 -1.24505,-0.32491 -2.49913,-0.52733 -3.74406,-0.85099 -1.28494,-0.50682 -2.5882,-1.03841 -3.76897,-1.76002 -1.04385,-0.41326 -1.93545,-1.05371 -2.86101,-1.67031 -1.09503,-0.634893 -2.01413,-1.525483 -3.10785,-2.156933 -0.97107,-0.60716 -1.79428,-1.39414 -2.6861,-2.10145 -0.88272,-0.72648 -1.51222,-1.66455 -2.22912,-2.53958 -0.68928,-0.99633 -1.33023,-2.02232 -1.73493,-3.16874 -0.55381,-1.08598 -0.84113,-2.24505 -1.01031,-3.44412 -0.0383,-0.17263 -0.0655,-0.34811 -0.11486,-0.5179 -0.0447,-0.15365 -0.12151,-0.47361 -0.26409,-0.40094 -0.19207,0.0979 -0.23394,0.74572 -0.0432,0.6453 3.01746,-1.58842 5.89963,-3.42153 8.84944,-5.1323 -0.73259,0.56788 -1.3426,1.33682 -1.93935,2.05444 -0.66371,0.94125 -1.39206,1.83467 -2.07644,2.75988 -0.55756,0.95107 -1.24579,1.81081 -1.88784,2.70414 -0.76951,1.14876 -1.71862,2.18225 -2.67401,3.18012 -0.94435,0.92355 -1.62714,2.06599 -2.39975,3.12809 -0.70707,0.91111 -1.54416,1.70336 -2.32668,2.54558 -3.40065,3.535243 -5.91151,4.117783 -11.46629,7.278703 -0.40931,0.40116 -0.98632,0.43487 -1.4745,0.65807 -0.51124,0.23374 -0.90542,0.50917 -1.45704,0.68463 -1.28574,0.22524 -2.55746,0.34362 -3.83291,0.62393 -1.41961,0.29654 -2.86958,0.37066 -4.31486,0.41734 -1.43529,0.0329 -2.87109,0.0271 -4.30665,0.0252 -1.4375,-0.10587 -2.62141,-0.72893 -3.82254,-1.45365 -1.00413,-0.46291 -1.86386,-1.17509 -2.73581,-1.84737 -0.98143,-0.62737 -1.93669,-1.33001 -2.7661,-2.15172 -0.77184,-0.69463 -1.54983,-1.39858 -2.2432,-2.17433 -0.72168,-0.918923 -1.25043,-1.934713 -1.72249,-2.999643 -0.55387,-1.3382 -0.70327,-2.77762 -0.79745,-4.20833 -0.1482,-1.35116 0.0265,-2.66335 0.36612,-3.9684 0.0666,-0.17511 0.13225,-0.35056 0.19967,-0.52534 0.0583,-0.15117 0.65399,-1.62458 0.67026,-1.43794 -0.93607,0.007 -1.8597,0.10966 -2.79562,0.29962 -1.42287,0.2841 -2.87175,0.37434 -4.31835,0.43002 -1.43946,0.0415 -2.8797,0.0374 -4.3196,0.0367 -1.42501,0.056 -2.82334,0.41582 -4.24882,0.56503 -1.44995,0.083 -2.91972,0.26308 -4.35702,0.0106 -1.39168,-0.12869 -2.6838,-0.57585 -4.01962,-0.93835 -1.27524,-0.43453 -2.41411,-1.04521 -3.4106,-1.95119 -1.144,-1.06288 -1.95805,-2.37853 -2.51732,-3.82461 -0.61804,-1.19513 -0.96177,-2.46699 -1.15148,-3.79109 -0.13391,-1.39427 -0.20217,-2.80233 -0.10873,-4.20088 0.16014,-1.19589 0.45204,-2.35461 0.83826,-3.49451 0.35912,-1.02764 0.85773,-1.99907 1.34002,-2.97271 0.51901,-1.25842 1.25916,-2.40328 2.00164,-3.53741 0.79367,-1.11974 1.5697,-2.25423 2.46222,-3.2985 3.16943,-3.72345 7.93786,-6.2786 12.7934,-6.63825 1.46899,-0.0745 2.94063,-0.056 4.4109,-0.0487 1.43381,0.009 2.86764,0.0124 4.30147,0.0146 1.42825,0.002 2.8565,0.002 4.28475,0.002 1.4544,0.0368 2.61171,0.0625 4.0259,-0.29104 0.19765,-0.0406 0.3953,-0.0813 0.59295,-0.12192 0,0 -8.47665,6.42077 -8.47665,6.42077 l 0,0 c -0.19848,0.0394 -0.39696,0.0788 -0.59544,0.11827 -1.3698,0.20368 -2.75763,0.087 -4.13823,0.11589 -1.42863,-2e-4 -2.85726,-4e-4 -4.28589,-0.003 -1.43374,-0.003 -2.86746,-0.0101 -4.30119,-0.0161 -1.44639,-10e-4 -2.89794,-0.0153 -4.33741,0.14745 -0.54333,0.0842 -0.85699,0.11303 -1.38381,0.2726 -0.21601,0.0654 -0.82871,0.35076 -0.63513,0.2347 2.8164,-1.68853 5.6949,-3.27193 8.51294,-4.95773 0.17452,-0.1044 -0.39745,0.10636 -0.57348,0.20819 -0.15945,0.0923 -0.27717,0.24273 -0.41576,0.36409 -0.81552,1.08992 -1.77077,2.07057 -2.5056,3.22722 -0.75647,1.07432 -1.48475,2.16015 -2.0705,3.33796 -0.35983,1.0064 -0.91934,1.92361 -1.38639,2.88149 -0.3207,1.11705 -0.78045,2.16825 -0.92328,3.33626 -0.28108,1.28933 -0.0549,2.64616 -0.0203,3.95471 0.14076,1.25564 0.43395,2.45389 1.02679,3.58159 0.46376,1.29883 1.20506,2.45119 2.25934,3.35627 0.93162,0.75139 2.00822,1.24026 3.15911,1.56682 1.27867,0.38429 2.57156,0.67009 3.90482,0.79703 1.40688,0.0463 2.81648,-0.0421 4.214,-0.20696 1.43676,-0.19953 2.86493,-0.53282 4.32485,-0.46265 1.42931,-0.003 2.85952,-0.005 4.28728,-0.0796 1.42781,-0.0923 2.84665,-0.25826 4.25311,-0.52612 1.20239,-0.1486 2.5653,-0.21628 3.50681,0.66785 0.57766,0.95705 0.38888,0.94407 -0.0349,1.84229 -0.15859,0.33619 -0.17449,0.73008 -0.39385,1.04331 -0.56195,1.09182 -0.64473,2.37763 -0.57648,3.58529 0.0616,1.30783 0.14329,2.63384 0.62509,3.86694 0.42257,0.95786 0.89884,1.87182 1.56003,2.68941 0.70446,0.73509 1.44448,1.4382 2.20296,2.11689 0.83988,0.75834 1.75384,1.42824 2.69788,2.05112 0.85999,0.63267 1.70763,1.28419 2.67481,1.751063 1.07421,0.63517 2.21695,1.01579 3.48308,0.99279 1.42608,-0.001 2.85294,0.001 4.27787,-0.0642 1.4174,-0.0834 2.83011,-0.23005 4.21584,-0.55285 1.24952,-0.24126 2.55562,-0.25916 3.73528,-0.78401 0.96497,-0.468923 1.94187,-0.902443 2.9007,-1.384053 -2.87816,1.675003 -5.76506,3.335063 -8.63447,5.025003 -0.14487,0.0853 0.31462,-0.12311 0.45865,-0.20984 0.57806,-0.34809 0.97426,-0.98702 1.45675,-1.4423 0.8914,-0.69776 1.62558,-1.60697 2.38727,-2.438523 0.96177,-0.93531 1.51086,-2.19177 2.37874,-3.20766 0.98073,-0.9303 1.83823,-1.95837 2.75346,-2.95319 0.53488,-0.96882 1.25997,-1.78327 1.89187,-2.68011 0.52605,-1.07813 1.44951,-1.84381 2.01822,-2.89765 0.607,-0.77198 1.29754,-1.46219 1.8114,-2.28022 2.70595,-1.59634 9.45288,-9.1681 10.89522,-3.48801 0.12752,1.14009 0.36949,2.23376 0.91717,3.25516 0.32884,1.04007 0.93271,1.95103 1.54691,2.84424 0.65842,0.83324 1.29098,1.67533 2.12439,2.35012 0.83048,0.71158 1.67414,1.40352 2.59815,1.9934 1.05888,0.7128 2.0516,1.51756 3.14437,2.18286 0.88763,0.62126 1.84053,1.10766 2.80343,1.60074 1.16031,0.59807 2.33026,1.20081 3.60086,1.53004 1.23714,0.30327 2.50256,0.47423 3.73039,0.82141 1.40463,0.22095 2.81697,0.39243 4.19352,0.76668 1.40004,0.23131 2.80735,0.48167 4.22236,0.57909 1.42983,6.9e-4 2.85966,0.002 4.28948,0.004 1.42232,0.002 2.8448,0.007 4.26696,-0.0182 1.32547,-0.0354 2.65853,-0.0814 3.95979,-0.35997 1.27868,-0.29413 2.54836,-0.5786 3.85583,-0.72068 1.42588,-0.30125 2.84153,-0.65063 4.26605,-0.95658 1.38088,-0.39876 2.76798,-0.79348 4.19445,-0.99501 1.15246,-0.19889 2.21263,-0.60662 3.30818,-0.99825 1.042,-0.37851 2.04314,-0.85596 3.10115,-1.19548 0.35853,-0.10659 1.37918,-0.56659 1.05711,-0.3764 -2.86605,1.69246 -5.75782,3.34098 -8.63672,5.01147 0.49114,-0.21339 0.90503,-0.42335 1.20856,-0.89075 0.78127,-0.54561 1.5517,-1.27976 2.03519,-2.09364 0.25898,-1.25138 0.51808,-2.44796 0.311,-3.73986 -0.0987,-1.24062 -0.27854,-2.46575 -0.83294,-3.59741 -0.57449,-1.37574 -0.96082,-2.83071 -1.62245,-4.17328 -0.75428,-1.45024 -1.58758,-2.83856 -2.48139,-4.20853 -0.85069,-1.22074 -1.74161,-2.4104 -2.58193,-3.63843 -0.76901,-0.87464 -1.60093,-1.70461 -2.59034,-2.33082 -1.2399,-0.57467 -2.43727,-0.71188 -3.79959,-0.50206 -1.43691,0.14239 -2.84922,0.40628 -4.25576,0.73177 -1.31475,0.14989 -2.74571,0.39323 -3.92522,-0.34476 -0.96823,-0.93163 -1.23639,-2.07605 -1.48148,-3.36691 -0.0894,-1.09304 -0.20717,-2.1937 -0.81904,-3.13747 -0.52582,-0.86977 -0.98216,-1.78997 -1.67456,-2.54796 -0.80908,-0.89493 -1.52445,-1.86886 -2.22054,-2.85303 -0.74216,-0.87879 -1.53099,-1.71211 -2.36276,-2.50627 -0.70523,-0.7371 -1.49781,-1.16447 -2.48277,-1.44584 -1.13127,-0.28191 -2.24145,-0.36174 -3.38689,-0.0731 -1.10254,0.26994 -2.13197,0.73612 -3.20241,1.10504 -0.96423,0.46998 -1.94001,0.90688 -2.90954,1.36539 15.72842,-9.11414 9.46966,-6.12624 6.51341,-3.40337 -1.2095,0.67785 -2.32309,1.4786 -3.43328,2.30724 -1.03639,0.86952 -2.11541,1.67027 -2.99147,2.71294 -3.36454,2.18391 -10.32551,9.8522 -11.0333,4.10139 -0.0927,-1.35303 -0.25121,-2.70324 -0.69108,-3.9944 -0.35741,-1.1608 -0.62341,-2.36797 -0.8658,-3.55433 -0.23168,-1.12849 -0.74456,-2.08546 -1.29255,-3.08994 -0.62801,-1.10059 -1.18979,-2.24912 -1.95161,-3.2643 -0.78122,-0.9564 -1.51583,-1.95326 -2.38283,-2.83748 -0.8711,-1.05758 -1.74994,-2.12031 -2.73049,-3.07749 -1.17782,-1.06497 -2.36381,-2.12589 -3.6021,-3.12032 -0.96196,-0.72801 -1.90407,-1.49074 -2.99185,-2.02958 -1.06793,-0.58641 -2.16863,-1.08065 -3.37166,-1.32287 -1.18343,-0.29392 -2.41065,-0.34489 -3.59619,-0.6397 -1.33014,-0.21493 -2.67965,-0.0974 -4.02214,-0.12803 -1.41817,-10e-4 -2.83671,-0.007 -4.25445,0.0335 -1.26968,0.0519 -2.54993,0.12028 -3.77702,0.48012 -1.09348,0.32678 -2.24255,0.47043 -3.26781,0.99357 -3.2108,1.69111 -7.19639,4.10131 7.14012,-4.2506 0.29211,-0.17017 -0.59017,0.33178 -0.86873,0.52332 -0.7963,0.54755 -1.47986,1.1713 -2.21505,1.79972 -4.13989,3.39955 -7.92571,7.2361 -11.58082,11.14419 0,0 -9.67006,4.04457 -9.67006,4.04457 z"
       inkscape:connector-curvature="0" />
    <path
       sodipodi:type="star"
       style="fill:#ff8080;stroke:#aa0000"
       id="path3253"
       sodipodi:sides="5"
       sodipodi:cx="484.87322"
       sodipodi:cy="216.96603"
       sodipodi:r1="23.057161"
       sodipodi:r2="18.653635"
       sodipodi:arg1="0.50284321"
       sodipodi:arg2="1.1311617"
       inkscape:flatsided="true"
       inkscape:rounded="0"
       inkscape:randomized="0"
       d="m 505.07628,228.07771 -24.5278,11.53627 -18.55114,-19.76243 13.06256,-23.75011 26.62425,5.08405 z"
       inkscape:transform-center-x="1.3364205"
       inkscape:transform-center-y="0.89167442" />
    <path
       sodipodi:type="star"
       style="fill:#ff9955;stroke:#aa4400"
       id="path3255"
       sodipodi:sides="5"
       sodipodi:cx="575.78695"
       sodipodi:cy="180.60054"
       sodipodi:r1="34.787988"
       sodipodi:r2="28.144073"
       sodipodi:arg1="0.45066133"
       sodipodi:arg2="1.0789799"
       inkscape:flatsided="true"
       inkscape:rounded="0"
       inkscape:randomized="0"
       d="m 607.10165,195.75283 -36.04862,19.3121 -29.50654,-28.31651 17.81258,-36.81267 40.51532,5.56503 z"
       inkscape:transform-center-x="1.4628552"
       inkscape:transform-center-y="1.8997985" />
    <path
       sodipodi:type="star"
       style="fill:#ffe680;stroke:#d4aa00"
       id="path3261"
       sodipodi:sides="5"
       sodipodi:cx="283.85287"
       sodipodi:cy="165.44826"
       sodipodi:r1="66.178482"
       sodipodi:r2="53.53952"
       sodipodi:arg1="0.54565505"
       sodipodi:arg2="1.1739736"
       inkscape:flatsided="true"
       inkscape:rounded="0"
       inkscape:randomized="0"
       d="m 340.42142,199.79344 -71.75212,30.06794 -50.76893,-58.94881 40.37519,-66.5003 75.72217,17.84935 z"
       inkscape:transform-center-x="4.6919819"
       inkscape:transform-center-y="1.6885663"
       transform="translate(104.04571,40.406102)" />
  </g>
</svg>
