<?xml version="1.0" encoding="UTF-8" standalone="no"?>
<!-- Created with Inkscape (http://www.inkscape.org/) -->

<svg
   xmlns:dc="http://purl.org/dc/elements/1.1/"
   xmlns:cc="http://creativecommons.org/ns#"
   xmlns:rdf="http://www.w3.org/1999/02/22-rdf-syntax-ns#"
   xmlns:svg="http://www.w3.org/2000/svg"
   xmlns="http://www.w3.org/2000/svg"
   xmlns:sodipodi="http://sodipodi.sourceforge.net/DTD/sodipodi-0.dtd"
   xmlns:inkscape="http://www.inkscape.org/namespaces/inkscape"
   width="210mm"
   height="297mm"
   id="svg2"
   version="1.1"
   inkscape:version="0.48.4 r9939"
   sodipodi:docname="ennemy.svg">
  <defs
     id="defs4" />
  <sodipodi:namedview
     id="base"
     pagecolor="#ffffff"
     bordercolor="#666666"
     borderopacity="1.0"
     inkscape:pageopacity="0.0"
     inkscape:pageshadow="2"
     inkscape:zoom="1.701022"
     inkscape:cx="259.07206"
     inkscape:cy="704.19286"
     inkscape:document-units="px"
     inkscape:current-layer="layer1"
     showgrid="false"
     inkscape:window-width="1920"
     inkscape:window-height="1137"
     inkscape:window-x="-8"
     inkscape:window-y="-8"
     inkscape:window-maximized="1" />
  <metadata
     id="metadata7">
    <rdf:RDF>
      <cc:Work
         rdf:about="">
        <dc:format>image/svg+xml</dc:format>
        <dc:type
           rdf:resource="http://purl.org/dc/dcmitype/StillImage" />
        <dc:title />
      </cc:Work>
    </rdf:RDF>
  </metadata>
  <g
     inkscape:label="Calque 1"
     inkscape:groupmode="layer"
     id="layer1">
    <path
       style="fill:none;stroke:#000000;stroke-width:1px;stroke-linecap:butt;stroke-linejoin:miter;stroke-opacity:1"
       d="m 211.42857,402.36218 0,20 130,0 2.85714,-22.85714 z"
       id="path2985"
       inkscape:connector-curvature="0" />
    <path
       style="fill:none;stroke:#000000;stroke-width:1px;stroke-linecap:butt;stroke-linejoin:miter;stroke-opacity:1"
       d="m 211.42857,516.6479 0,18.57143 128.57143,2.85714 0,-22.85714 z"
       id="path2987"
       inkscape:connector-curvature="0" />
    <path
       style="fill:none;stroke:#000000;stroke-width:1px;stroke-linecap:butt;stroke-linejoin:miter;stroke-opacity:1"
       d="m 211.42857,410.57647 -56.42857,0 0,0"
       id="path2989"
       inkscape:connector-curvature="0" />
    <path
       style="fill:none;stroke:#000000;stroke-width:1px;stroke-linecap:butt;stroke-linejoin:miter;stroke-opacity:1"
       d="m 211.78571,527.36218 -57.14285,-1.42857"
       id="path2991"
       inkscape:connector-curvature="0" />
    <path
       style="fill:none;stroke:#000000;stroke-width:1px;stroke-linecap:butt;stroke-linejoin:miter;stroke-opacity:1"
       d="m 159.64286,516.29075 c 0,0 5.71428,1.42857 5.35714,9.64286 -0.35714,8.21429 -5.71429,7.5 -5.71429,7.5"
       id="path2993"
       inkscape:connector-curvature="0" />
    <path
       style="fill:none;stroke:#000000;stroke-width:1px;stroke-linecap:butt;stroke-linejoin:miter;stroke-opacity:1"
       d="m 159.64286,400.93361 c 0,0 5.35714,0.35714 5.71428,10 0.35715,9.64286 -5,8.57143 -5,8.57143"
       id="path2995"
       inkscape:connector-curvature="0" />
    <path
       style="fill:none;stroke:#000000;stroke-width:1px;stroke-linecap:butt;stroke-linejoin:miter;stroke-opacity:1"
       d="m 261.62951,422.02699 -24.24366,17.1726 -48.48732,11.11168 -1.51523,28.78934 48.9924,8.5863 25.25381,28.28427"
       id="path2997"
       inkscape:connector-curvature="0" />
    <path
       style="fill:none;stroke:#000000;stroke-width:1px;stroke-linecap:butt;stroke-linejoin:miter;stroke-opacity:1"
       d="m 343.95694,406.36963 c 9.59645,-1.51523 68.1853,-14.14214 68.1853,-14.14214 l -10.6066,18.68783 -66.67007,31.31472 1.01015,43.94164 61.61931,41.92133 10.6066,24.74874 -66.67007,-21.2132"
       id="path2999"
       inkscape:connector-curvature="0" />
    <path
       style="fill:none;stroke:#000000;stroke-width:1px;stroke-linecap:butt;stroke-linejoin:miter;stroke-opacity:1"
       d="m 226.07143,454.50504 -16.42857,3.21428 -0.35715,8.92858 16.42858,4.28571 17.14285,10.35714 44.28572,7.85715 -6.07143,-16.07143 0.35714,-14.28572 13.21429,-15.71428 -50,3.57143 z"
       id="path3001"
       inkscape:connector-curvature="0" />
    <path
       style="fill:none;stroke:#000000;stroke-width:1px;stroke-linecap:butt;stroke-linejoin:miter;stroke-opacity:1"
       d="m 233.92857,452.36218 c 0,0 -2.85714,7.5 -0.35714,21.42857"
       id="path3003"
       inkscape:connector-curvature="0" />
    <path
       style="fill:none;stroke:#000000;stroke-width:1px;stroke-linecap:butt;stroke-linejoin:miter;stroke-opacity:1"
       d="m 264.28571,445.21932 c 0,0 -10.71428,17.5 -1.07142,38.57143"
       id="path3005"
       inkscape:connector-curvature="0" />
    <path
       style="fill:none;stroke:#000000;stroke-width:1px;stroke-linecap:butt;stroke-linejoin:miter;stroke-opacity:1"
       d="m 405.71429,403.79075 -82.85715,36.42857 1.42857,50.71429 76.07143,44.64286"
       id="path3007"
       inkscape:connector-curvature="0" />
    <path
       style="fill:#37c8ab;fill-opacity:1;stroke:#000000;stroke-width:0.35714287"
       d="m 261.32868,445.99189 c -5.62376,0.5559 -11.33381,0.69689 -16.914,1.37737 -3.47973,1.65778 -7.40701,2.71485 -10.586,4.83915 1.01157,0.64956 -0.2138,2.43442 -0.0988,3.49071 -0.65902,5.91778 -0.38827,11.9276 0.15458,17.8151 -0.1246,0.70234 -1.14826,0.60162 -0.90401,-0.33483 -1.09403,-6.32147 -1.18747,-12.9102 -0.0558,-19.22991 0.34716,-0.86423 0.49405,-2.30938 -0.83735,-1.3051 -6.83462,3.17601 -14.4968,3.85399 -21.72961,5.5685 -0.34354,2.65196 -0.57274,5.40265 -0.35714,8.03571 5.46322,1.5673 11.14929,2.6074 16.48133,4.47745 5.65163,3.31715 11.16908,6.98582 16.90571,10.0845 6.35565,1.02084 12.67111,2.59238 19.05715,3.26171 0.34639,-0.93637 -0.96747,-2.18499 -1.00352,-3.24203 -1.9078,-4.90412 -2.81324,-10.17856 -2.5121,-15.46333 -0.44139,-6.75373 1.48632,-13.38669 4.35268,-19.41964 -0.42688,-0.33326 -1.38625,0.10255 -1.95313,0.0446 z"
       id="path3009"
       inkscape:connector-curvature="0" />
    <path
       style="fill:#37c8ab;fill-opacity:1;stroke:#000000;stroke-width:0.35714287"
       d="m 291.57422,443.89368 c -9.00076,0.61909 -18.08056,1.08779 -27.00893,2.14286 -3.14158,5.93105 -4.75928,12.72461 -4.56473,19.47544 -0.30227,5.93024 1.16414,11.77333 3.32589,17.20982 0.58635,0.6388 -0.29343,1.10332 -0.11161,1.52902 7.6116,1.28657 15.3117,3.01053 22.87947,3.98438 -1.69289,-5.16768 -4.02991,-10.20061 -5.62486,-15.36813 0.14932,-4.79567 0.30607,-9.5911 0.46861,-14.38634 3.97741,-4.83711 8.24434,-9.55847 11.9866,-14.52009 -0.26773,-0.32991 -0.97418,0.0246 -1.35044,-0.067 z"
       id="path3011"
       inkscape:connector-curvature="0" />
    <path
       style="fill:none;stroke:#000000;stroke-width:1px;stroke-linecap:butt;stroke-linejoin:miter;stroke-opacity:1"
       d="m 341.6841,531.69168 -1.32583,-0.50508"
       id="path3013"
       inkscape:connector-curvature="0" />
    <path
       style="fill:#9955ff;fill-opacity:0;stroke:#000000;stroke-width:0.10392381"
       d="m 363.90064,402.8994 c -6.49161,1.29027 -12.9688,2.72916 -19.49545,3.79647 -0.22488,0.0974 -0.57438,-0.15393 -0.57809,0.22408 -0.72806,5.29673 -1.33638,10.62167 -2.01676,15.92958 -26.84266,0 -53.68531,0 -80.52796,0 -7.94434,5.54275 -15.78733,11.27606 -23.80181,16.709 -1.43688,0.49042 -2.97956,0.71042 -4.45573,1.09769 -14.52652,3.36008 -29.07604,6.62447 -43.58954,10.03839 -0.22268,0.87504 -0.12604,1.86246 -0.2332,2.77655 -0.45761,8.38851 -0.95715,16.77767 -1.32566,25.16921 0.82467,0.32845 1.81598,0.33954 2.7007,0.55181 15.25514,2.6959 30.55176,5.34735 45.78625,8.04139 2.42452,2.40274 4.65523,5.06093 6.97689,7.59108 6.16555,6.88537 12.3063,13.79519 18.47146,20.67945 3.46627,0.1338 6.95161,-0.002 10.42483,0.005 22.49866,-0.20587 44.99635,-0.53102 67.49529,-0.69308 0.92876,-0.29548 0.78472,0.48185 0.75669,1.14316 1e-5,4.91256 0,9.82512 0,14.73768 1.03609,0.56696 2.29153,0.79382 3.41676,1.21515 21.04404,6.73364 42.09743,13.44634 63.15943,20.11847 0.27493,-0.24446 -0.20475,-0.68824 -0.2353,-0.99207 -2.17567,-5.03523 -4.25089,-10.12181 -6.5847,-15.08365 -25.45539,-14.87203 -50.93197,-29.76688 -76.34177,-44.71321 -0.21613,-4.30989 -0.27352,-8.68913 -0.42225,-13.02574 -0.35239,-12.75118 -0.73045,-25.5018 -1.03594,-38.25417 27.34631,-12.13583 54.79022,-24.0559 82.12016,-36.22876 0.27629,-0.15232 1.00479,-0.29517 0.8078,-0.74538 -8.78273,-0.13699 -17.57228,-0.069 -26.35768,-0.0909 -5.03805,0.002 -10.07681,-0.004 -15.11442,0.003 z m -68.47605,39.71513 c -0.0818,0.34325 -0.55478,0.78764 -0.80316,1.14542 -4.20618,5.11341 -8.54232,10.13581 -12.74915,15.24207 -0.1064,4.70883 -0.23084,9.41911 -0.32151,14.12714 2.06711,5.49128 4.19367,10.96116 6.18996,16.47842 -9.03969,-1.45 -18.06001,-3.12258 -27.08454,-4.70189 -5.99314,-1.06436 -11.98628,-2.12871 -17.97942,-3.19307 -5.72018,-3.45356 -11.43661,-6.9138 -17.15718,-10.3664 -5.56135,-1.45031 -11.12487,-2.89261 -16.68302,-4.35506 0.0971,-3.20884 0.23872,-6.41677 0.40596,-9.62269 5.55638,-1.14639 11.14586,-2.15981 16.69755,-3.31081 6.19025,-2.61668 12.38078,-5.23267 18.57159,-7.84801 16.97081,-1.1997 33.93706,-2.46973 50.91292,-3.59512 z"
       id="path3021"
       inkscape:connector-curvature="0" />
    <path
       style="fill:#9955ff;fill-opacity:0.82805431;stroke:#000000;stroke-width:0.10392381000000001"
       d="m 363.87791,402.8994 c -6.55506,1.33668 -13.11181,2.73879 -19.70006,3.86467 -0.48285,-0.0354 -0.319,0.74254 -0.4506,1.02834 -0.68786,5.01078 -1.27045,10.03966 -1.92015,15.05712 -26.82859,0 -53.65717,0 -80.48575,0 -7.82605,5.47219 -15.61228,11.05058 -23.42508,16.53038 -1.44011,0.66766 -3.0797,0.78941 -4.60597,1.2209 -14.5839,3.36611 -29.18767,6.64991 -43.74783,10.11653 -0.34389,0.27641 -0.12251,0.91498 -0.24271,1.31452 -0.49715,8.49279 -0.98326,16.98769 -1.33034,25.48804 0.0513,0.4209 -0.2414,1.24905 0.43638,1.25687 10.86377,1.99399 21.75648,3.83635 32.63293,5.7632 5.05695,0.91891 10.14001,1.70685 15.17852,2.71958 0.79579,0.0921 1.09056,0.98577 1.65422,1.44137 7.98894,8.9185 15.94838,17.86005 23.92078,26.79343 4.91496,0.10731 9.86461,-0.0198 14.79274,-0.0413 20.7603,-0.17877 41.51954,-0.46598 62.27975,-0.64716 0.54127,0.003 1.08266,-0.007 1.62381,0.006 1e-5,5.27198 0,10.54394 0,15.81591 0.9607,0.60205 2.17379,0.79487 3.24181,1.20902 19.1195,6.13831 38.2545,12.23112 57.39941,18.29063 1.94057,0.59617 3.87667,1.2351 5.81806,1.78199 0.33295,-0.19728 -0.19566,-0.71133 -0.21079,-1.01227 -2.09346,-4.97544 -4.19169,-9.96815 -6.47605,-14.85884 -25.45886,-14.94509 -50.93375,-29.86292 -76.38726,-44.81714 -0.52579,-16.18451 -0.93426,-32.37317 -1.34448,-48.56113 -0.01,-0.90686 -0.0616,-1.83324 -0.0422,-2.72852 16.9682,-7.55547 34.00145,-14.96715 50.99331,-22.4705 10.55992,-4.67263 21.15471,-9.27019 31.66711,-14.04674 0.42347,-0.1824 -0.11657,-0.41749 -0.34302,-0.35623 -5.79296,-0.22611 -11.59444,-0.11836 -17.391,-0.15964 -7.84507,-0.003 -15.69086,-0.006 -23.53549,5.1e-4 z m -68.4111,39.71189 c 0.1776,0.22809 -0.6986,0.89173 -0.92344,1.2861 -4.21388,5.03218 -8.46667,10.04518 -12.64186,15.10138 -0.15616,4.70874 -0.25416,9.42105 -0.341,14.13039 2.05708,5.49505 4.22718,11 6.17372,16.5044 -4.09861,-0.56324 -8.17054,-1.41409 -12.2573,-2.09725 -10.9357,-1.93826 -21.87118,-3.87769 -32.80666,-5.81719 -5.75189,-3.46889 -11.50083,-6.94314 -17.2546,-10.40862 -5.52632,-1.43989 -11.0573,-2.86238 -16.5791,-4.31934 0.10005,-3.20876 0.23704,-6.41682 0.40596,-9.62269 5.55779,-1.14372 11.14493,-2.17313 16.69756,-3.32377 6.18592,-2.61236 12.37211,-5.22403 18.55859,-7.83505 16.98918,-1.20096 33.97396,-2.47121 50.96813,-3.59836 z"
       id="path3023"
       inkscape:connector-curvature="0" />
    <path
       style="fill:#9955ff;fill-opacity:0.82805433;stroke:#000000;stroke-width:0.29394093"
       d="m 410.2177,393.31204 c -14.62867,2.87332 -29.18682,6.11332 -43.77883,9.16728 0.35142,0.67573 2.39142,0.005 3.22407,0.26629 11.96658,0.0109 23.97729,0.0521 35.916,-0.10094 1.56945,-3.08996 3.80679,-5.95309 4.87759,-9.23159 -0.0169,-0.12914 -0.14654,-0.11788 -0.23883,-0.10104 z"
       id="path3793"
       inkscape:connector-curvature="0" />
    <path
       style="fill:#9955ff;fill-opacity:0.82805433;stroke:#000000;stroke-width:0.58788186"
       d="m 338.33236,400.40698 c -42.11529,0.73638 -84.32297,1.83597 -126.37622,2.59035 0.0613,6.28866 -0.12253,12.67884 0.0918,18.90408 42.88838,-0.0491 85.84555,0.0979 128.69101,-0.0735 0.95586,-7.10455 2.16124,-14.36084 2.3699,-21.45769 -1.58736,-0.0584 -3.18623,0.0335 -4.77654,0.0367 z"
       id="path3795"
       inkscape:connector-curvature="0" />
    <path
       style="fill:#9955ff;fill-opacity:0.82805433;stroke:#000000;stroke-width:0.58788186"
       d="m 325.36222,515.99924 c -37.7659,0.87966 -75.56218,0.27882 -113.31423,1.67179 -0.15031,5.61182 -0.15403,11.49211 0,17.10369 42.35254,0.26672 84.78333,2.26117 127.07434,2.25967 -0.0629,-7.12081 0.1232,-14.34478 -0.0919,-21.40257 -4.55608,0.12247 -9.11217,0.24495 -13.66825,0.36742 z"
       id="path3797"
       inkscape:connector-curvature="0" />
    <path
       style="fill:none;stroke:#000000;stroke-width:1px;stroke-linecap:butt;stroke-linejoin:miter;stroke-opacity:1"
       d="m 400.10667,536.27654 -51.75406,-3.53341"
       id="path3799"
       inkscape:connector-curvature="0" />
    <path
       style="fill:none;stroke:#000000;stroke-width:1px;stroke-linecap:butt;stroke-linejoin:miter;stroke-opacity:1"
       d="m 404.88717,403.04621 -39.6989,-1.03923"
       id="path3801"
       inkscape:connector-curvature="0" />
    <path
       style="fill:#6f8a91;fill-opacity:0.82805433;stroke:#000000;stroke-width:0.20784763"
       d="m 403.81109,405.25732 c -26.79638,11.66294 -53.55021,23.43008 -80.26815,35.26914 -0.10254,5.99035 0.22377,12.05707 0.3185,18.0753 0.32721,10.36181 0.43763,20.7349 0.98704,31.08716 -0.10946,1.57567 1.89424,1.7368 2.80977,2.56638 23.83561,14.08201 47.69973,28.11927 71.63865,42.02343 0.37772,-0.48461 -0.48556,-1.32624 -0.5391,-1.9161 -0.66305,-1.33202 -1.04472,-2.89001 -1.88011,-4.08547 -20.46869,-13.92964 -40.95423,-27.83456 -61.40949,-41.7839 -0.45038,-14.39559 -0.81757,-28.79804 -0.98227,-43.19967 -0.4962,-1.59652 0.95386,-1.91877 2.10991,-2.43352 21.52924,-10.12486 43.08723,-20.20904 64.59767,-30.36109 0.93198,-1.73157 2.02108,-3.38984 2.81894,-5.17671 l -0.1364,-0.0909 -0.065,0.026 z"
       id="path3803"
       inkscape:connector-curvature="0" />
    <path
       style="fill:none;stroke:#000000;stroke-width:1px;stroke-linecap:butt;stroke-linejoin:miter;stroke-opacity:1"
       d="m 219.4871,244.2506 c 0,0 2.49417,-17.4592 6.65112,-19.95337 4.15695,-2.49417 30.76145,1.66278 38.24396,15.79642 7.48252,14.13364 111.40633,18.29059 111.40633,18.29059 0,0 -73.99375,-1.66278 -103.92381,13.30225 -29.93006,14.96503 -13.30225,14.13364 -29.93006,17.4592 -16.62781,3.32556 -24.11033,-12.47086 -24.94172,-19.95337 -0.83139,-7.48251 2.49418,-24.94172 2.49418,-24.94172 z"
       id="path3006"
       inkscape:connector-curvature="0" />
    <path
       style="fill:none;stroke:#000000;stroke-width:1px;stroke-linecap:butt;stroke-linejoin:miter;stroke-opacity:1"
       d="m 219.27925,246.95262 c 0.83139,-1.24708 6.02758,-8.93745 15.79642,-9.35314 9.76884,-0.4157 17.25135,9.35314 20.36907,10.60023 3.11771,1.24708 27.02019,7.48251 31.17714,7.48251 4.15695,0 -26.1888,4.3648 -30.76145,8.7296 -4.57265,4.3648 -5.81973,7.69037 -13.0944,10.39239 -7.27467,2.70201 -22.03185,-7.06682 -23.07109,-10.39239 -1.03924,-3.32556 -2.70202,-4.78049 -2.70202,-4.78049"
       id="path3008"
       inkscape:connector-curvature="0" />
    <path
       style="fill:#0066ff;fill-opacity:1;stroke:#2a7fff;stroke-width:0.20784763"
       d="m 234.87709,238.13416 c -6.18739,0.24476 -11.68099,4.14047 -15.17937,9.02839 -0.65624,1.82479 -0.71565,3.92744 -1.10585,5.85433 -0.19833,2.2428 -0.91366,4.51356 -0.68034,6.75942 1.66921,2.47967 2.32909,5.76936 4.96081,7.46464 4.63959,3.59304 10.01174,6.70256 15.92085,7.45024 3.91583,0.23799 7.66001,-1.78877 10.49222,-4.32729 3.48646,-3.04564 6.19037,-7.32259 10.83275,-8.6782 7.66551,-2.52794 15.66614,-3.99917 23.56415,-5.67013 -0.66886,-0.57486 -2.14791,-0.47275 -3.12421,-0.8184 -8.14929,-1.87374 -16.3355,-3.77259 -24.31817,-6.22244 -3.43095,-1.29303 -5.81645,-4.28316 -8.83352,-6.2809 -3.61915,-2.64474 -7.92293,-4.79948 -12.52932,-4.55966 z"
       id="path3010"
       inkscape:connector-curvature="0" />
    <path
       style="fill:#0066ff;fill-opacity:1;stroke:#2a7fff;stroke-width:0.20784763"
       d="m 234.58481,238.29005 c -6.0966,0.23024 -11.63698,4.12683 -14.8676,9.13231 -0.91011,2.6452 -0.99638,5.5325 -1.46793,8.28792 -0.29983,1.9425 -0.54328,4.05032 0.63004,5.76777 1.19563,2.37846 2.43119,4.84981 4.78398,6.28274 4.23113,3.17561 9.00246,5.85102 14.26655,6.76619 3.97324,0.48041 7.92327,-1.16892 10.81458,-3.82569 3.28004,-2.73636 5.88371,-6.34994 9.71038,-8.3204 7.70647,-2.99573 15.97256,-4.27561 24.00506,-6.15556 0.49683,0.049 0.87832,-0.57738 0.17671,-0.5865 -8.8572,-2.04813 -17.80801,-3.93281 -26.44187,-6.76307 -3.43393,-1.36812 -5.96895,-4.24529 -9.02351,-6.25996 -3.66335,-2.71876 -7.91521,-4.6691 -12.58639,-4.32575 z"
       id="path3012"
       inkscape:connector-curvature="0" />
    <path
       style="fill:#0066ff;fill-opacity:1;stroke:#2a7fff;stroke-width:0.20784763"
       d="m 235.01999,238.32253 c -5.29281,0.0695 -10.17377,2.91518 -13.55557,6.86546 -2.74292,2.68006 -2.51659,6.82035 -3.17347,10.33504 -0.45318,2.32299 -0.27409,4.7972 1.05843,6.80633 1.23922,2.66563 3.25737,4.88963 5.7683,6.41043 4.06427,2.7512 8.55078,5.19257 13.48768,5.83266 4.48532,0.19896 8.62828,-2.17582 11.65628,-5.32365 3.18673,-2.74256 5.92397,-6.30009 10.10324,-7.55599 7.35384,-2.52556 15.12118,-3.76689 22.64193,-5.67076 -0.11674,-0.57942 -1.30222,-0.36722 -1.76746,-0.65872 -8.50402,-2.11895 -17.18392,-3.7851 -25.44602,-6.70535 -5.28394,-2.61355 -9.21447,-7.54511 -14.92763,-9.42612 -1.87211,-0.64958 -3.86384,-0.96154 -5.84571,-0.90933 z"
       id="path3014"
       inkscape:connector-curvature="0" />
    <path
       style="fill:#0066ff;fill-opacity:1;stroke:#2a7fff;stroke-width:0.20784763"
       d="m 234.72121,238.44594 c -5.55581,0.13962 -10.69846,3.43742 -14.02322,7.72933 -1.88772,2.86646 -1.88637,6.50224 -2.39675,9.80131 -0.47163,2.88878 0.42511,5.78885 2.12395,8.12555 2.50974,3.86192 6.80376,6.00821 10.78209,8.11255 3.5044,1.59784 7.53581,3.18105 11.38615,1.79269 3.22244,-0.82359 5.82441,-2.97529 8.16083,-5.24681 3.19961,-2.84702 6.20958,-6.29129 10.51948,-7.36695 7.01454,-2.24989 14.2874,-3.53473 21.4148,-5.35857 -0.0145,-0.59759 -1.46383,-0.44464 -1.94863,-0.75279 -8.27108,-2.1059 -16.72728,-3.7292 -24.75329,-6.63229 -5.75487,-2.65652 -9.98117,-8.10639 -16.27634,-9.71925 -1.6192,-0.45739 -3.31575,-0.5364 -4.98907,-0.48477 z"
       id="path3016"
       inkscape:connector-curvature="0" />
    <path
       style="fill:#0066ff;fill-opacity:1;stroke:#2a7fff;stroke-width:0.20784763"
       d="m 234.4549,238.58234 c -5.34191,0.0631 -10.1837,3.34679 -13.46463,7.35261 -2.29372,3.15828 -2.23943,7.27137 -2.69534,10.99604 -0.32755,4.3727 2.52954,8.33815 5.76759,10.97085 4.17097,2.9855 8.85115,5.54689 13.94335,6.47804 4.87052,0.61517 9.30467,-2.26178 12.62498,-5.52952 3.27446,-2.93149 6.43806,-6.35573 10.84657,-7.47051 6.90209,-2.17724 14.02454,-3.55157 21.02276,-5.36429 -0.12667,-0.55588 -1.44342,-0.43299 -1.97484,-0.73242 -8.20097,-2.11245 -16.56747,-3.80714 -24.53872,-6.65917 -6.04977,-2.84478 -10.58086,-8.61725 -17.36178,-9.91822 -1.38038,-0.18866 -2.78111,-0.11878 -4.16994,-0.12341 z"
       id="path3018"
       inkscape:connector-curvature="0" />
    <path
       style="fill:#0066ff;fill-opacity:1;stroke:#2a7fff;stroke-width:0.20784763"
       d="m 234.90307,238.66028 c -5.57094,-0.0564 -10.72862,3.19555 -13.99724,7.54097 -2.17088,3.39552 -2.34633,7.62377 -2.48586,11.54187 -0.0264,5.28923 4.167,9.37436 8.37827,11.93761 4.12698,2.4763 8.72387,4.90829 13.67775,4.6449 5.63037,-0.56707 9.59281,-5.08369 13.58804,-8.58021 3.26111,-3.18074 7.66761,-4.60813 12.00092,-5.67742 5.28513,-1.40853 10.67816,-2.55656 15.92211,-4.02646 -0.24434,-0.66905 -1.46732,-0.52879 -2.03863,-0.84731 -8.05924,-2.16083 -16.32442,-3.77886 -24.13069,-6.73264 -5.49906,-2.67814 -9.88992,-7.41381 -15.76394,-9.37263 -1.66356,-0.48069 -3.4358,-0.44322 -5.15073,-0.42868 z"
       id="path3020"
       inkscape:connector-curvature="0" />
    <path
       style="fill:#2ad4ff;fill-opacity:1;stroke:#80e5ff;stroke-width:0.20784763"
       d="m 229.97968,224.14992 c -1.8831,-0.0412 -4.05582,0.36706 -4.96886,2.22786 -2.919,5.28161 -3.7438,11.39569 -4.95386,17.23505 -0.14584,0.494 -0.40622,2.03097 0.38583,0.95944 3.59371,-4.09252 8.62409,-7.15699 14.18748,-7.35393 5.36519,-0.43078 10.31038,2.25077 14.39432,5.43318 2.84154,2.02875 5.21211,4.93166 8.74405,5.76538 9.13938,2.57672 18.34799,5.01802 27.71103,6.63885 1.03963,0.18185 2.22744,0.15232 3.18449,0.48565 -3.62529,1.53835 -7.65226,1.91958 -11.47041,2.84247 -6.46129,1.47219 -13.11948,2.56095 -19.18711,5.30906 -3.07715,1.79577 -5.10568,4.89684 -7.78153,7.20782 -2.31222,2.18603 -5.29449,3.78793 -8.38854,4.60366 -5.78331,0.86927 -11.23115,-2.02004 -16.01384,-4.92003 -2.84697,-1.85621 -5.88546,-3.85435 -7.10314,-7.19654 -0.45984,-1.36269 -1.33135,-2.7274 -1.20068,-0.4268 -0.82079,6.93104 1.38168,14.17135 6.011,19.38621 2.53715,2.90542 5.77977,5.26096 9.58048,6.15749 4.96865,1.38458 10.15839,-0.0175 14.94554,-1.41596 2.76433,-0.8445 3.9813,-3.71999 6.19115,-5.33232 5.44077,-4.53489 11.8795,-7.66877 18.17898,-10.84083 11.45332,-5.3576 24.07669,-7.49977 36.50161,-9.34456 14.63871,-2.06221 29.40591,-3.04619 44.17575,-3.48353 0.23846,-0.0345 1.61405,0.0188 1.01975,-0.35075 -8.96034,-0.83242 -17.95492,-1.33682 -26.90872,-2.27466 -15.85055,-1.65786 -31.76433,-3.43253 -47.26028,-7.27342 -4.98069,-1.39326 -10.27616,-2.71681 -14.3546,-5.96904 -2.20625,-2.29206 -3.62102,-5.31885 -6.13599,-7.3966 -6.48236,-5.84737 -15.0988,-8.76071 -23.59026,-10.18541 -1.94812,-0.29895 -3.91999,-0.52031 -5.89364,-0.48774 z"
       id="path3022"
       inkscape:connector-curvature="0" />
    <path
       style="fill:#2ad4ff;fill-opacity:1;stroke:#80e5ff;stroke-width:0.20784763"
       d="m 229.81081,224.29281 c -1.78733,-0.0327 -3.97835,0.29412 -4.70256,2.1824 -2.92048,5.22383 -3.75516,11.24073 -4.94937,17.02402 -0.62426,2.12264 0.91815,0.44947 1.66756,-0.32429 3.63956,-3.72733 8.7369,-6.12143 14.03793,-5.95011 5.8366,-0.13562 10.78433,3.46906 15.10792,6.94991 2.20156,1.74254 4.39504,3.64978 7.2228,4.24997 9.17353,2.68573 18.47418,5.01546 27.89696,6.64254 0.75215,0.20372 2.04671,0.0904 2.55262,0.49364 -5.0667,1.94946 -10.5621,2.50982 -15.8159,3.83868 -5.20612,1.28451 -10.63386,2.18721 -15.39372,4.72204 -4.67907,3.69517 -8.25171,9.16661 -14.21278,10.93552 -2.89012,1.12443 -6.13855,0.48029 -9.02718,-0.32879 -4.46375,-1.59711 -8.71919,-4.03599 -12.35394,-7.05383 -1.8262,-1.46457 -2.76494,-3.63547 -3.92313,-5.5989 -0.59257,0.27326 -0.23676,1.39657 -0.41148,1.94189 -0.51877,7.23859 2.1683,14.63732 7.43042,19.65886 3.80205,3.94895 9.47157,5.94174 14.92098,5.13279 3.30524,-0.49027 6.77177,-0.97182 9.71788,-2.61672 2.34847,-1.8125 4.08676,-4.32187 6.58626,-5.97982 5.66417,-4.06073 11.94454,-7.29352 18.27751,-10.21281 12.56997,-5.39438 26.31842,-7.34443 39.81432,-9.11813 12.36796,-1.5427 24.81373,-2.345 37.2642,-2.80814 0.5189,0.16851 1.35456,-0.33422 0.42266,-0.36921 -11.59445,-1.13665 -23.2265,-1.91686 -34.79864,-3.2953 -14.19682,-1.69745 -28.49849,-3.47286 -42.21342,-7.66493 -4.23515,-1.33785 -8.73592,-3.0439 -11.28902,-6.89639 -3.46863,-5.12963 -8.59328,-8.91074 -14.26837,-11.30046 -6.15821,-2.5493 -12.86495,-4.22758 -19.56051,-4.25443 z"
       id="path3024"
       inkscape:connector-curvature="0" />
    <path
       style="fill:#2ad4ff;fill-opacity:1;stroke:#80e5ff;stroke-width:0.20784763"
       d="m 229.56399,224.35776 c -1.81894,-0.0707 -3.84073,0.59174 -4.52906,2.42995 -2.82273,5.3321 -3.72115,11.38922 -4.87605,17.24413 -0.1124,0.90121 0.88401,-0.19242 1.11034,-0.3717 3.75852,-3.81646 8.9475,-6.73268 14.48473,-6.35737 3.07148,-0.21016 6.03613,0.77456 8.67114,2.28633 4.27571,2.2137 7.57944,5.95276 11.89928,8.08007 8.27061,2.82163 16.85755,4.6937 25.40123,6.5219 2.27633,0.56873 4.71952,0.65391 6.92557,1.36982 -3.35435,1.39141 -7.07242,1.93307 -10.61971,2.76048 -6.17791,1.4092 -12.48242,2.549 -18.40751,4.82596 -4.18904,1.86951 -6.90216,5.84539 -10.47682,8.54124 -3.26258,2.79576 -7.68146,4.75416 -12.04867,3.72826 -5.80658,-1.18544 -11.10306,-4.25652 -15.57558,-8.06059 -1.61997,-1.36499 -2.36764,-3.41168 -3.66981,-4.99484 -0.52371,0.38835 -0.10173,1.47565 -0.25331,2.08497 -0.10165,4.51006 0.58915,9.10906 2.83842,13.07492 3.07975,5.81975 8.67427,10.78484 15.47165,11.3147 4.37171,0.10756 8.86817,-0.61123 12.87357,-2.33828 3.12879,-2.15026 5.53666,-5.20742 8.76207,-7.2357 6.73106,-4.56652 14.06737,-8.25821 21.66812,-11.13933 12.5735,-4.4788 26.0059,-6.15285 39.22997,-7.7328 10.34582,-1.17078 20.74083,-1.84385 31.13944,-2.28935 0.67809,0.0303 0.2645,-0.59925 -0.24032,-0.44817 -14.12568,-1.55895 -28.3252,-2.48126 -42.40351,-4.47924 -11.79719,-1.68735 -23.71609,-3.4885 -34.98604,-7.4436 -3.5751,-1.23985 -6.71874,-3.39302 -8.82941,-6.54057 -4.16943,-5.62473 -10.27912,-9.51906 -16.86697,-11.74595 -5.34137,-1.87539 -11.0111,-3.06109 -16.69276,-3.08524 z"
       id="path3026"
       inkscape:connector-curvature="0" />
    <path
       style="fill:#2ad4ff;fill-opacity:1;stroke:#80e5ff;stroke-width:0.20784763"
       d="m 229.79782,224.49416 c -1.85651,-0.11436 -3.99728,0.43542 -4.72204,2.35128 -2.73941,5.28524 -3.70797,11.24978 -4.774,17.04351 0.26358,0.51687 0.93172,-0.49237 1.25358,-0.57808 3.70481,-3.51491 8.49892,-6.2003 13.75038,-6.03174 3.09038,-0.19702 6.14535,0.56098 8.7816,2.17357 4.21734,2.23081 7.68369,5.5736 11.82783,7.89821 6.98189,2.5899 14.30641,4.19487 21.55945,5.86388 3.67122,0.8849 7.65846,1.41494 11.17005,2.37857 -5.01926,1.76674 -10.36213,2.62209 -15.54059,3.89244 -5.11867,1.29445 -10.49371,2.12562 -15.17685,4.6606 -4.95528,3.33318 -8.46192,8.6927 -14.22311,10.78978 -5.02012,1.83225 -10.40643,-0.23817 -14.87101,-2.58188 -3.99396,-2.17333 -7.88468,-4.82071 -10.2201,-8.78478 -0.16015,-0.25066 -0.82088,-1.26288 -0.92232,-0.47415 -0.21721,5.36597 0.54307,10.9562 3.49552,15.5536 2.98118,4.99477 7.9421,9.26845 13.88574,9.99217 4.59707,0.0786 9.47681,-0.15178 13.61402,-2.33829 3.57925,-2.32072 6.38037,-5.63424 10.05093,-7.83351 10.27177,-6.73697 21.73552,-11.58494 33.75063,-14.11484 12.46905,-2.64006 25.17321,-3.9832 37.85305,-5.13784 6.17724,-0.60303 12.3934,-0.7154 18.57341,-1.21356 0.18568,-0.50233 -1.14949,-0.26854 -1.49888,-0.44729 -22.31924,-2.4282 -44.87937,-3.79644 -66.7529,-9.16597 -4.97793,-1.39796 -10.25342,-2.64595 -14.4391,-5.76747 -3.08025,-2.88268 -5.35002,-6.57468 -8.78881,-9.1117 -6.74131,-5.28816 -15.27371,-7.7847 -23.68088,-8.82814 -1.31373,-0.13262 -2.63476,-0.21423 -3.9556,-0.18837 z"
       id="path3028"
       inkscape:connector-curvature="0" />
    <path
       style="fill:#2ad4ff;fill-opacity:1;stroke:#80e5ff;stroke-width:0.20784763"
       d="m 229.42759,224.57211 c -1.72913,-0.0266 -3.63763,0.52264 -4.27387,2.29931 -2.57032,5.14342 -3.67365,10.86971 -4.6376,16.49791 -0.0859,0.89238 0.94222,-0.0952 1.21461,-0.28579 3.72404,-3.39459 8.49203,-5.9972 13.69196,-5.80675 2.91425,-0.16853 5.79825,0.50012 8.29442,2.01353 5.43951,2.73719 9.76714,7.62842 15.80292,9.19725 9.50472,3.08973 19.39609,4.85761 29.09866,7.07981 -5.12165,1.86127 -10.64668,2.76831 -15.96529,4.08551 -5.03971,1.36351 -10.42982,2.07564 -14.95854,4.80648 -5.21209,3.51543 -9.04802,9.3858 -15.44596,10.89745 -5.29574,1.16486 -10.49811,-1.41391 -14.98829,-3.90306 -3.63358,-2.14556 -6.98645,-4.89603 -9.1932,-8.54026 -0.42605,0.93201 -0.15721,2.41654 -0.24127,3.5723 0.0702,6.70448 2.9876,13.3161 8.08496,17.69054 2.25148,2.09422 5.09808,3.64615 8.1411,4.17901 4.70535,0.19942 9.74611,0.30631 14.0492,-1.87063 4.05824,-2.47107 7.33498,-6.03266 11.39914,-8.49577 11.55353,-7.54449 24.7332,-12.45949 38.34789,-14.68574 15.94065,-2.85729 32.09681,-4.28177 48.25312,-5.19619 0.39878,-0.16286 1.79329,0.12414 1.62381,-0.44167 -16.08984,-1.79168 -32.25286,-3.04254 -48.25722,-5.53443 -9.39219,-1.58054 -18.92629,-3.22269 -27.84748,-6.54672 -3.67477,-1.24945 -6.58704,-3.85088 -8.98487,-6.81273 -3.83515,-4.53758 -8.67239,-8.22102 -14.24938,-10.33803 -6.00389,-2.36602 -12.47663,-3.87907 -18.95882,-3.86133 z"
       id="path3030"
       inkscape:connector-curvature="0" />
  </g>
</svg>
