<?xml version="1.0" encoding="UTF-8" standalone="no"?>
<!-- Created with Inkscape (http://www.inkscape.org/) -->

<svg
   xmlns:dc="http://purl.org/dc/elements/1.1/"
   xmlns:cc="http://creativecommons.org/ns#"
   xmlns:rdf="http://www.w3.org/1999/02/22-rdf-syntax-ns#"
   xmlns:svg="http://www.w3.org/2000/svg"
   xmlns="http://www.w3.org/2000/svg"
   xmlns:sodipodi="http://sodipodi.sourceforge.net/DTD/sodipodi-0.dtd"
   xmlns:inkscape="http://www.inkscape.org/namespaces/inkscape"
   width="210mm"
   height="297mm"
   id="svg2"
   version="1.1"
   inkscape:version="0.48.4 r9939"
   sodipodi:docname="Nouveau document 1">
  <defs
     id="defs4" />
  <sodipodi:namedview
     id="base"
     pagecolor="#ffffff"
     bordercolor="#666666"
     borderopacity="1.0"
     inkscape:pageopacity="0.0"
     inkscape:pageshadow="2"
     inkscape:zoom="0.35"
     inkscape:cx="53.643641"
     inkscape:cy="811.24543"
     inkscape:document-units="px"
     inkscape:current-layer="layer1"
     showgrid="false"
     inkscape:window-width="1117"
     inkscape:window-height="1008"
     inkscape:window-x="7"
     inkscape:window-y="2"
     inkscape:window-maximized="0" />
  <metadata
     id="metadata7">
    <rdf:RDF>
      <cc:Work
         rdf:about="">
        <dc:format>image/svg+xml</dc:format>
        <dc:type
           rdf:resource="http://purl.org/dc/dcmitype/StillImage" />
        <dc:title></dc:title>
      </cc:Work>
    </rdf:RDF>
  </metadata>
  <g
     inkscape:label="Calque 1"
     inkscape:groupmode="layer"
     id="layer1">
    <path
       sodipodi:type="star"
       style="fill:#ffffff;stroke:#000000"
       id="path2993"
       sodipodi:sides="5"
       sodipodi:cx="170.71578"
       sodipodi:cy="177.57008"
       sodipodi:r1="80.969886"
       sodipodi:r2="65.506014"
       sodipodi:arg1="2.2767162"
       sodipodi:arg2="2.9050348"
       inkscape:flatsided="true"
       inkscape:rounded="0.05"
       inkscape:randomized="0.004"
       d="m 118.09957,239.19862 c -3.63519,-3.06075 -24.312068,-88.2729 -22.514254,-92.68006 1.797813,-4.40716 76.610044,-50.095314 81.353494,-49.708136 4.74346,0.387177 71.46238,57.213656 72.55385,61.843226 1.09147,4.62957 -32.09942,85.58565 -36.16249,88.05471 -4.06306,2.46906 -91.5954,-4.44898 -95.2306,-7.50974 z"
       inkscape:transform-center-x="-1.7811093"
       inkscape:transform-center-y="-5.5507172" />
    <path
       sodipodi:type="star"
       style="fill:#ffffff;stroke:#000000"
       id="path3007"
       sodipodi:sides="4"
       sodipodi:cx="107.07617"
       sodipodi:cy="152.31626"
       sodipodi:r1="6.5659915"
       sodipodi:r2="3.2829959"
       sodipodi:arg1="0.39479112"
       sodipodi:arg2="1.1801893"
       inkscape:flatsided="false"
       inkscape:rounded="0.05"
       inkscape:randomized="0.004"
       d="m 113.13919,154.85291 c -0.0921,0.22406 -4.60273,0.43164 -4.82628,0.52474 -0.22355,0.0931 -3.54852,3.09564 -3.77228,3.00291 -0.22377,-0.0927 -0.38452,-4.60331 -0.47761,-4.82674 -0.0931,-0.22343 -3.16378,-3.55893 -3.07055,-3.7823 0.0932,-0.22337 4.6134,-0.39307 4.83695,-0.48527 0.22355,-0.0922 3.52326,-3.14813 3.74618,-3.05408 0.22292,0.0941 0.43776,4.59755 0.53013,4.82092 0.0924,0.22337 3.12552,3.57576 3.03346,3.79982 z"
       inkscape:transform-center-x="0.010355635"
       inkscape:transform-center-y="-0.0099087224" />
    <path
       sodipodi:type="star"
       style="fill:#ffffff;stroke:#000000"
       id="path3009"
       sodipodi:sides="4"
       sodipodi:cx="173.74624"
       sodipodi:cy="108.37463"
       sodipodi:r1="4.6565732"
       sodipodi:r2="2.3282867"
       sodipodi:arg1="0.86217005"
       sodipodi:arg2="1.6475682"
       inkscape:flatsided="false"
       inkscape:rounded="0.05"
       inkscape:randomized="0.004"
       d="m 176.76233,111.9207 c -0.12974,0.11244 -3.03969,-1.19556 -3.21037,-1.2093 -0.17069,-0.0137 -3.23029,0.81998 -3.34277,0.69005 -0.11249,-0.12992 1.1902,-3.04576 1.20332,-3.2168 0.0131,-0.17105 -0.82822,-3.22821 -0.6987,-3.3402 0.12952,-0.11199 3.05114,1.213 3.22195,1.22618 0.17081,0.0132 3.22115,-0.86073 3.3332,-0.73112 0.11204,0.12962 -1.1882,3.02574 -1.20132,3.19675 -0.0131,0.17102 0.82442,3.272 0.69469,3.38444 z"
       inkscape:transform-center-x="0.007195109"
       inkscape:transform-center-y="0.0080093823" />
    <path
       sodipodi:type="star"
       style="fill:#ffffff;stroke:#000000"
       id="path3011"
       sodipodi:sides="4"
       sodipodi:cx="232.84016"
       sodipodi:cy="157.36703"
       sodipodi:r1="6.3285876"
       sodipodi:r2="3.1642939"
       sodipodi:arg1="1.0714496"
       sodipodi:arg2="1.8568478"
       inkscape:flatsided="false"
       inkscape:rounded="0.05"
       inkscape:randomized="0.004"
       d="m 235.85045,162.93248 c -0.20532,0.11138 -3.65758,-2.44046 -3.88158,-2.50654 -0.22401,-0.0661 -4.58782,0.17093 -4.6993,-0.0336 -0.11148,-0.20455 2.49461,-3.71553 2.55912,-3.93935 0.0645,-0.22382 -0.23434,-4.52942 -0.0292,-4.64117 0.20513,-0.11175 3.68589,2.45834 3.90937,2.52545 0.22348,0.0671 4.59102,-0.1983 4.70203,0.006 0.111,0.20467 -2.44482,3.71182 -2.51039,3.93533 -0.0656,0.22351 0.1553,4.54215 -0.05,4.65354 z"
       inkscape:transform-center-x="-7.2265283e-005"
       inkscape:transform-center-y="0.005104125" />
    <path
       sodipodi:type="star"
       style="fill:#ffffff;stroke:#000000"
       id="path3013"
       sodipodi:sides="4"
       sodipodi:cx="205.06097"
       sodipodi:cy="238.68431"
       sodipodi:r1="4.3448304"
       sodipodi:r2="2.1724153"
       sodipodi:arg1="0.62024949"
       sodipodi:arg2="1.4056476"
       inkscape:flatsided="false"
       inkscape:rounded="0.05"
       inkscape:randomized="0.004"
       d="m 208.60982,241.19907 c -0.0926,0.13039 -3.02934,-0.3897 -3.18728,-0.36326 -0.15794,0.0264 -2.76373,1.462 -2.89465,1.36967 -0.13092,-0.0923 0.40018,-3.00099 0.37343,-3.1589 -0.0267,-0.15791 -1.47841,-2.77514 -1.38473,-2.90499 0.0937,-0.12985 3.03662,0.41277 3.19435,0.38553 0.15773,-0.0272 2.72901,-1.45833 2.85989,-1.36583 0.13087,0.0925 -0.3998,3.01064 -0.37286,3.16834 0.0269,0.1577 1.50442,2.73904 1.41185,2.86944 z"
       inkscape:transform-center-x="-0.0021476653"
       inkscape:transform-center-y="-0.00093869836" />
    <path
       sodipodi:type="star"
       style="fill:#ffffff;stroke:#000000"
       id="path3015"
       sodipodi:sides="4"
       sodipodi:cx="120.71323"
       sodipodi:cy="231.61324"
       sodipodi:r1="3.9447718"
       sodipodi:r2="1.972386"
       sodipodi:arg1="0.69473828"
       sodipodi:arg2="1.4801364"
       inkscape:flatsided="false"
       inkscape:rounded="0.05"
       inkscape:randomized="0.004"
       d="m 123.74587,234.12701 c -0.0938,0.11136 -2.70631,-0.54949 -2.85089,-0.53685 -0.14457,0.0126 -2.60051,1.14035 -2.71157,1.04679 -0.11106,-0.0936 0.58105,-2.70543 0.56824,-2.85013 -0.0128,-0.1447 -1.15449,-2.58658 -1.06082,-2.69791 0.0937,-0.11134 2.69387,0.58275 2.83838,0.56942 0.14452,-0.0133 2.60044,-1.16842 2.71158,-1.07486 0.11114,0.0936 -0.57006,2.69244 -0.55741,2.83728 0.0126,0.14483 1.15625,2.59489 1.06249,2.70626 z"
       inkscape:transform-center-x="-0.0051247204"
       inkscape:transform-center-y="-0.0029609073" />
    <path
       style="fill:#b3b3b3;stroke:#000000;stroke-width:0.25253814"
       d="m 104.95127,156.67019 c -0.084,-0.21891 -0.15561,-1.04216 -0.15914,-1.82945 -0.006,-1.34216 -0.0848,-1.52573 -1.26349,-2.94309 -1.44201,-1.73401 -1.3768,-1.84966 1.06005,-1.87987 1.34064,-0.0166 1.5252,-0.0976 2.9033,-1.27356 1.6611,-1.41746 1.80262,-1.3534 1.83449,0.83047 0.0209,1.4331 0.23595,1.89009 1.69825,3.60913 l 1.09713,1.28975 -2.04036,0.13985 c -1.91205,0.13105 -2.11454,0.20184 -3.21972,1.12559 -1.57884,1.31966 -1.73266,1.39463 -1.91051,0.93118 z"
       id="path3017"
       inkscape:connector-curvature="0" />
    <path
       style="fill:#b3b3b3;stroke:#000000;stroke-width:0.25253814"
       d="m 119.20164,232.6689 c 0.14944,-0.66256 0.10496,-1.19577 -0.15078,-1.80784 -0.19949,-0.47747 -0.36272,-0.9019 -0.36272,-0.94319 0,-0.0413 0.4081,0.0376 0.90688,0.17533 0.69502,0.1919 1.13749,0.15813 1.89403,-0.14458 0.54294,-0.21724 0.98716,-0.36674 0.98716,-0.33223 0,0.0345 -0.10956,0.44477 -0.24346,0.91167 -0.181,0.63108 -0.14775,1.078 0.12958,1.74174 0.20518,0.49105 0.33996,0.92592 0.29951,0.96637 -0.0404,0.0404 -0.48132,-0.0184 -0.97972,-0.13084 -0.49839,-0.11241 -1.06341,-0.11987 -1.2556,-0.0166 -0.19218,0.10328 -0.59409,0.26251 -0.89312,0.35384 -0.51224,0.15644 -0.53143,0.11167 -0.33176,-0.77367 l 0,-1e-5 z"
       id="path3019"
       inkscape:connector-curvature="0" />
    <path
       style="fill:#b3b3b3;stroke:#000000;stroke-width:0.25253814"
       d="m 174.49907,110.42988 c -0.69974,-0.30522 -1.12056,-0.33154 -2.01994,-0.12634 -0.62482,0.14256 -1.1634,0.23184 -1.19684,0.19841 -0.0334,-0.0334 0.12424,-0.53184 0.35039,-1.10755 0.32992,-0.8399 0.36152,-1.29791 0.15989,-2.31765 -0.13821,-0.69899 -0.22024,-1.27089 -0.18229,-1.27089 0.038,0 0.5614,0.20514 1.16322,0.45587 0.7243,0.30176 1.35035,0.39724 1.85184,0.28242 1.65272,-0.3784 1.68647,-0.35585 1.21837,0.81405 -0.33694,0.84211 -0.36985,1.28734 -0.16797,2.27284 0.28047,1.36916 0.22194,1.4089 -1.17667,0.79884 l 0,0 z"
       id="path3023"
       inkscape:connector-curvature="0" />
    <path
       style="fill:#b3b3b3;stroke:#000000;stroke-width:0.25253814"
       d="m 233.77118,160.87562 c -1.41694,-0.99407 -1.52768,-1.0266 -3.49457,-1.0266 l -2.03125,0 1.1291,-1.5823 1.12911,-1.5823 -0.13072,-1.82697 c -0.0719,-1.00483 -0.0524,-1.82696 0.0433,-1.82696 0.0957,0 0.86147,0.46681 1.70165,1.03737 l 1.52759,1.03736 1.89777,-0.17783 c 2.11195,-0.19791 2.05972,-0.31653 0.7216,1.63863 -0.6731,0.98349 -0.79476,1.41902 -0.90404,3.23631 l -0.12627,2.09989 -1.46331,-1.0266 0,0 z"
       id="path3025"
       inkscape:connector-curvature="0" />
    <path
       style="fill:#b3b3b3;stroke:#000000;stroke-width:0.25253814"
       d="m 203.39593,240.06694 c 0.13476,-0.89868 0.0586,-1.36297 -0.35719,-2.17803 l -0.52847,-1.03588 1.23287,0.16355 c 0.89785,0.1191 1.44622,0.0532 2.01803,-0.24248 1.08784,-0.56255 1.1143,-0.54322 0.93085,0.68014 -0.13063,0.87105 -0.0489,1.2793 0.4125,2.06137 l 0.57539,0.97521 -1.20099,-0.16462 c -0.9459,-0.12965 -1.41904,-0.0534 -2.22763,0.35914 l -1.02664,0.52376 0.17128,-1.14216 0,0 z"
       id="path3027"
       inkscape:connector-curvature="0" />
    <path
       style="fill:#aaffaa;stroke:#000000;stroke-width:0.50507629"
       d="m 193.38402,246.07526 c -27.87095,-1.37498 -67.5068,-5.2033 -73.28791,-7.07868 -1.23352,-0.40016 -2.72606,-2.15266 -2.72606,-3.20088 0,-0.53706 4.36733,-1.30335 5.84657,-1.02584 l 1.79525,0.33679 -0.74781,-1.78976 c -0.46797,-1.12002 -0.64254,-2.57458 -0.4665,-3.88706 l 0.28131,-2.09731 -1.82887,0.76415 c -1.10577,0.46203 -2.53189,0.65007 -3.60695,0.47561 -1.96181,-0.31836 -2.03682,-0.18601 -1.20244,2.12144 0.3891,1.07603 0.41884,2.06234 0.0918,3.04351 -0.45418,1.36253 -0.57044,1.1741 -1.8951,-3.07129 -6.6228,-21.22538 -18.693717,-72.66332 -19.093296,-81.36247 l -0.134624,-2.93086 5.80838,-4.17673 c 10.48794,-7.54175 36.46375,-23.82233 54.80077,-34.3469 8.35858,-4.79742 18.84219,-10.247823 19.71125,-10.247823 1.56364,0 17.38293,12.322503 35.33798,27.526653 20.64781,17.48437 36.62212,32.44533 36.62212,34.29896 0,4.64874 -23.08996,62.24144 -32.28128,80.51838 -3.24638,6.45543 -3.10499,6.35616 -9.20459,6.46248 -2.87853,0.0502 -9.09752,-0.0994 -13.81999,-0.33237 z m 10.87388,-3.77737 c 1.0054,-0.51991 2.13081,-0.66114 3.51045,-0.44053 2.29528,0.36703 2.35618,0.26586 1.18942,-1.97605 -0.48197,-0.9261 -0.79501,-2.54411 -0.73301,-3.78868 l 0.10822,-2.17227 -1.51475,0.78331 c -0.83311,0.43082 -2.54882,0.78331 -3.81267,0.78331 -2.48936,0 -2.68514,0.31154 -1.56139,2.48463 0.46533,0.89983 0.62698,2.09951 0.439,3.25791 -0.33679,2.07537 0.0719,2.25922 2.37473,1.06837 z m 32.31015,-81.03958 c 0,-1.92764 0.35539,-3.06695 1.53614,-4.9245 l 1.53613,-2.41665 -2.92509,-0.25254 c -2.02628,-0.17494 -3.58162,-0.67933 -5.06164,-1.64149 -1.1751,-0.76393 -2.2547,-1.38896 -2.39911,-1.38896 -0.14442,0 -0.26258,1.24216 -0.26258,2.76037 0,2.20892 -0.30686,3.24317 -1.53603,5.17704 l -1.53604,2.41665 3.19086,0.25254 c 2.21521,0.17532 3.65009,0.59512 4.69276,1.37296 2.30404,1.71881 2.7646,1.49301 2.7646,-1.35542 z m -129.7478,-3.62526 c 1.28092,-0.99542 2.67297,-1.5176 4.67195,-1.75255 1.56606,-0.18406 2.84739,-0.45041 2.84739,-0.5919 0,-0.14149 -0.76294,-1.18979 -1.69543,-2.32957 -1.29893,-1.58769 -1.7799,-2.7515 -2.05665,-4.97652 -0.19867,-1.5973 -0.49192,-2.90418 -0.65166,-2.90418 -0.15975,0 -1.26125,0.79549 -2.44778,1.76776 -1.23703,1.01366 -2.76744,1.79326 -3.58755,1.82753 -0.78662,0.0329 -2.07175,0.20333 -2.85584,0.3788 l -1.425609,0.31905 1.836169,2.35314 c 1.44179,1.84773 1.89848,2.95686 2.12627,5.164 0.31453,3.0475 0.28412,3.04051 3.23874,0.74444 l 0,0 z m 70.43412,-47.10988 c -0.22996,-1.53345 -0.0896,-2.81629 0.44922,-4.10588 l 0.78368,-1.8756 -2.44846,0.3248 c -1.67135,0.22171 -3.01634,0.0875 -4.2377,-0.42279 l -1.78924,-0.7476 0.067,2.88718 c 0.0368,1.58794 -0.12505,3.50417 -0.35976,4.25829 l -0.42676,1.37111 2.50892,-0.29714 c 1.46368,-0.17335 2.90495,-0.0671 3.45954,0.25502 1.9107,1.10982 2.3523,0.7449 1.99356,-1.64739 l 0,0 z"
       id="path3029"
       inkscape:connector-curvature="0" />
    <path
       sodipodi:type="star"
       style="fill:#55ff55;stroke:#000000"
       id="path3033"
       sodipodi:sides="4"
       sodipodi:cx="309.61176"
       sodipodi:cy="84.130966"
       sodipodi:r1="46.469761"
       sodipodi:r2="23.234882"
       sodipodi:arg1="-0.010869137"
       sodipodi:arg2="0.77452903"
       inkscape:flatsided="false"
       inkscape:rounded="0.05"
       inkscape:randomized="0.004"
       d="m 356.24108,83.64119 c 0.0285,1.710524 -28.93716,15.384855 -30.13906,16.60574 -1.2019,1.22089 -14.43967,30.22286 -16.15367,30.24829 -1.714,0.0254 -15.4711,-28.53156 -16.70108,-29.72332 -1.22998,-1.191755 -30.00135,-14.553855 -30.02087,-16.262947 -0.0195,-1.709093 28.57312,-15.34121 29.76732,-16.564578 1.1942,-1.223368 14.22055,-30.205606 15.92961,-30.228163 1.70906,-0.02256 15.86488,28.705564 17.09288,29.894906 1.228,1.189341 30.19633,14.319547 30.22487,16.030072 z"
       inkscape:transform-center-x="-0.12199451"
       inkscape:transform-center-y="-0.025248413"
       transform="translate(-140.4112,91.923882)" />
    <path
       sodipodi:type="star"
       style="fill:#55ff55;stroke:#000000"
       id="path3043"
       sodipodi:sides="5"
       sodipodi:cx="307.14285"
       sodipodi:cy="161.6479"
       sodipodi:r1="25.364687"
       sodipodi:r2="20.520464"
       sodipodi:arg1="0.56456939"
       sodipodi:arg2="1.1928879"
       inkscape:flatsided="true"
       inkscape:rounded="0.05"
       inkscape:randomized="0.015"
       d="m 328.22418,175.20399 c -0.80364,1.25068 -25.69275,11.63832 -27.13515,11.25755 -1.44239,-0.38077 -18.92961,-21.5145 -19.00901,-23.00699 -0.0794,-1.49249 14.39506,-25.17051 15.77282,-25.72726 1.37776,-0.55674 27.86756,6.51407 28.81976,7.64705 0.9522,1.13297 2.35522,28.57896 1.55158,29.82965 z"
       inkscape:transform-center-x="1.8714266"
       inkscape:transform-center-y="0.43603292"
       transform="translate(-11.428571,12.142857)" />
    <path
       sodipodi:type="star"
       style="fill:#ffffff;stroke:#000000"
       id="path3043-1"
       sodipodi:sides="5"
       sodipodi:cx="307.14285"
       sodipodi:cy="161.6479"
       sodipodi:r1="25.364687"
       sodipodi:r2="20.520464"
       sodipodi:arg1="0.56456939"
       sodipodi:arg2="1.1928879"
       inkscape:flatsided="true"
       inkscape:rounded="0.05"
       inkscape:randomized="0.015"
       d="m 328.22418,175.20399 c -0.80364,1.25068 -25.69275,11.63832 -27.13515,11.25755 -1.44239,-0.38077 -18.92961,-21.5145 -19.00901,-23.00699 -0.0794,-1.49249 14.39506,-25.17051 15.77282,-25.72726 1.37776,-0.55674 27.86756,6.51407 28.81976,7.64705 0.9522,1.13297 2.35522,28.57896 1.55158,29.82965 z"
       inkscape:transform-center-x="1.8714266"
       inkscape:transform-center-y="0.43603292"
       transform="translate(63.686792,9.9303024)" />
    <path
       sodipodi:type="star"
       style="fill:#80b3ff;stroke:#000000"
       id="path3063"
       sodipodi:sides="5"
       sodipodi:cx="97.857143"
       sodipodi:cy="327.36218"
       sodipodi:r1="52.683111"
       sodipodi:r2="42.621532"
       sodipodi:arg1="0.21866895"
       sodipodi:arg2="0.84698748"
       inkscape:flatsided="true"
       inkscape:rounded="0.05"
       inkscape:randomized="0.015"
       d="m 148.75719,339.38084 c -0.70167,3.02506 -43.55901,39.68042 -46.66297,39.9399 -3.103971,0.25949 -51.931316,-28.01496 -53.232364,-30.8312 -1.301048,-2.81624 11.394916,-58.01231 13.75683,-60.04987 2.361914,-2.03756 59.492814,-8.1673 62.140034,-6.59075 2.64722,1.57656 24.70015,54.50686 23.99847,57.53192 z"
       inkscape:transform-center-x="-0.91392579"
       inkscape:transform-center-y="3.0953913" />
    <path
       sodipodi:type="star"
       style="fill:#b3b3b3;stroke:#000000"
       id="path3075"
       sodipodi:sides="4"
       sodipodi:cx="66.41753"
       sodipodi:cy="293.23254"
       sodipodi:r1="3.2142857"
       sodipodi:r2="1.6071429"
       sodipodi:arg1="0.78539816"
       sodipodi:arg2="1.5707963"
       inkscape:flatsided="false"
       inkscape:rounded="0.05"
       inkscape:randomized="0.015"
       d="m 68.669966,295.4662 c -0.08411,0.083 -2.122193,-0.64715 -2.240136,-0.64539 -0.117943,0.002 -2.195626,0.73031 -2.278284,0.64474 -0.08266,-0.0856 0.613881,-2.08885 0.614861,-2.20692 9.8e-4,-0.11807 -0.697631,-2.18969 -0.615286,-2.27499 0.08235,-0.0853 2.159911,0.65106 2.278349,0.65296 0.118438,0.002 2.158385,-0.73713 2.240071,-0.65231 0.08169,0.0848 -0.67522,2.10507 -0.672977,2.22282 0.0022,0.11775 0.757513,2.17609 0.673402,2.25909 z"
       inkscape:transform-center-x="0.0070875496"
       inkscape:transform-center-y="-0.0077733874" />
    <path
       sodipodi:type="star"
       style="fill:#b3b3b3;stroke:#000000"
       id="path3077"
       sodipodi:sides="4"
       sodipodi:cx="120.46069"
       sodipodi:cy="285.15132"
       sodipodi:r1="2.2587698"
       sodipodi:r2="1.1293849"
       sodipodi:arg1="0.46364761"
       sodipodi:arg2="1.2490458"
       inkscape:flatsided="false"
       inkscape:rounded="0.05"
       inkscape:randomized="0.015"
       d="m 122.48143,286.19328 c -0.0382,0.0735 -1.57169,-0.004 -1.65075,0.021 -0.0791,0.0246 -1.31268,0.98043 -1.38841,0.94457 -0.0757,-0.0359 -0.0457,-1.54698 -0.0724,-1.6252 -0.0267,-0.0782 -0.97743,-1.29061 -0.94093,-1.36593 0.0365,-0.0753 1.57477,-0.0324 1.6544,-0.0575 0.0796,-0.0251 1.31323,-0.98777 1.38841,-0.95207 0.0752,0.0357 0.0408,1.58318 0.0687,1.66169 0.028,0.0785 0.97911,1.29994 0.94093,1.37343 z"
       inkscape:transform-center-x="0.0054547328"
       inkscape:transform-center-y="0.0072020596" />
    <path
       sodipodi:type="star"
       style="fill:#b3b3b3;stroke:#000000"
       id="path3079"
       sodipodi:sides="4"
       sodipodi:cx="142.93659"
       sodipodi:cy="336.92164"
       sodipodi:r1="2.8793778"
       sodipodi:r2="1.4396889"
       sodipodi:arg1="0.66104317"
       sodipodi:arg2="1.4464413"
       inkscape:flatsided="false"
       inkscape:rounded="0.05"
       inkscape:randomized="0.015"
       d="m 145.19559,338.71964 c -0.065,0.0835 -1.93356,-0.3741 -2.03806,-0.35988 -0.10451,0.0142 -1.88084,0.88181 -1.96565,0.81812 -0.0848,-0.0637 0.28881,-1.97848 0.27386,-2.08275 -0.0149,-0.10426 -0.84232,-1.86929 -0.77738,-1.95246 0.065,-0.0832 1.95055,0.34764 2.0557,0.33631 0.10515,-0.0113 1.86459,-0.93662 1.94801,-0.87136 0.0834,0.0653 -0.37374,2.02909 -0.36157,2.13401 0.0122,0.10492 0.93007,1.89454 0.86509,1.97801 z"
       inkscape:transform-center-x="-0.0052233266"
       inkscape:transform-center-y="-0.028857269" />
    <path
       sodipodi:type="star"
       style="fill:#b3b3b3;stroke:#000000"
       id="path3081"
       sodipodi:sides="4"
       sodipodi:cx="100.76272"
       sodipodi:cy="371.51937"
       sodipodi:r1="3.2926945"
       sodipodi:r2="1.6463472"
       sodipodi:arg1="1.0040671"
       sodipodi:arg2="1.7894653"
       inkscape:flatsided="false"
       inkscape:rounded="0.05"
       inkscape:randomized="0.015"
       d="m 102.49676,374.31875 c -0.1005,0.0672 -1.94109,-1.16997 -2.05908,-1.19853 -0.11799,-0.0286 -2.392852,0.25938 -2.458791,0.15765 -0.06594,-0.10173 1.150573,-1.98167 1.177755,-2.10016 0.02718,-0.11849 -0.27101,-2.39917 -0.169096,-2.4636 0.101914,-0.0644 2.040552,1.16142 2.157762,1.19 0.11722,0.0286 2.29929,-0.21284 2.36534,-0.11205 0.066,0.10078 -1.15866,1.93659 -1.18308,2.05456 -0.0244,0.11798 0.2697,2.40494 0.16919,2.47213 z"
       inkscape:transform-center-x="0.017954994"
       inkscape:transform-center-y="-0.0028526345" />
    <path
       sodipodi:type="star"
       style="fill:#b3b3b3;stroke:#000000"
       id="path3083"
       sodipodi:sides="4"
       sodipodi:cx="52.527932"
       sodipodi:cy="346.77063"
       sodipodi:r1="1.8385054"
       sodipodi:r2="0.91925266"
       sodipodi:arg1="0.27829966"
       sodipodi:arg2="1.0636978"
       inkscape:flatsided="false"
       inkscape:rounded="0.05"
       inkscape:randomized="0.015"
       d="m 54.277132,347.27525 c -0.01747,0.0656 -1.26273,0.23852 -1.322083,0.27188 -0.05935,0.0334 -0.888435,1.0018 -0.953808,0.98339 -0.06537,-0.0184 -0.225698,-1.24643 -0.25829,-1.30567 -0.03259,-0.0592 -1.026846,-0.91363 -1.008273,-0.97876 0.01857,-0.0651 1.265543,-0.27002 1.325057,-0.30158 0.05951,-0.0316 0.888496,-0.94092 0.953808,-0.92213 0.06531,0.0188 0.281111,1.23992 0.313445,1.29956 0.03233,0.0597 0.96761,0.88768 0.950144,0.95331 z"
       inkscape:transform-center-x="0.02203388"
       inkscape:transform-center-y="0.0058081773" />
    <path
       sodipodi:type="arc"
       style="fill:#2a7fff;stroke:#000000"
       id="path3089"
       sodipodi:cx="101.89914"
       sodipodi:cy="326.31503"
       sodipodi:rx="24.622469"
       sodipodi:ry="24.496199"
       d="m 126.52161,326.31503 a 24.622469,24.496199 0 1 1 -49.24494,0 24.622469,24.496199 0 1 1 49.24494,0 z" />
    <text
       xml:space="preserve"
       style="font-size:40px;font-style:normal;font-weight:normal;line-height:125%;letter-spacing:0px;word-spacing:0px;fill:#000000;fill-opacity:1;stroke:none;font-family:Sans"
       x="88.640884"
       y="339.44699"
       id="text3091"
       sodipodi:linespacing="125%"><tspan
         sodipodi:role="line"
         id="tspan3093"
         x="88.640884"
         y="339.44699">S</tspan></text>
    <path
       sodipodi:type="star"
       style="fill:#2a7fff;stroke:#000000"
       id="path3101"
       sodipodi:sides="5"
       sodipodi:cx="179.28571"
       sodipodi:cy="327.36218"
       sodipodi:r1="22.41765"
       sodipodi:r2="18.13626"
       sodipodi:arg1="0.53495507"
       sodipodi:arg2="1.1632736"
       inkscape:flatsided="true"
       inkscape:rounded="0.05"
       inkscape:randomized="0.015"
       d="m 198.323,338.62889 c -0.66702,1.14616 -22.5447,10.77331 -23.83601,10.47832 -1.29132,-0.29499 -17.57966,-18.02039 -17.71619,-19.32719 -0.13653,-1.30681 12.25647,-22.14104 13.46499,-22.68292 1.20853,-0.54188 24.69778,4.31921 25.57274,5.3129 0.87495,0.99368 3.18148,25.07274 2.51447,26.21889 z"
       inkscape:transform-center-x="1.6796858"
       inkscape:transform-center-y="0.72228586" />
    <path
       transform="translate(61.679699,-1.4365711)"
       sodipodi:type="star"
       style="fill:#ffffff;stroke:#000000"
       id="path3101-7"
       sodipodi:sides="5"
       sodipodi:cx="179.28571"
       sodipodi:cy="327.36218"
       sodipodi:r1="22.41765"
       sodipodi:r2="18.136259"
       sodipodi:arg1="0.53495507"
       sodipodi:arg2="1.1632736"
       inkscape:flatsided="true"
       inkscape:rounded="0.05"
       inkscape:randomized="0.015"
       d="m 198.323,338.62889 c -0.66702,1.14616 -22.5447,10.77331 -23.83601,10.47832 -1.29132,-0.29499 -17.57966,-18.02039 -17.71619,-19.32719 -0.13653,-1.30681 12.25647,-22.14104 13.46499,-22.68292 1.20853,-0.54188 24.69778,4.31921 25.57274,5.3129 0.87495,0.99368 3.18148,25.07274 2.51447,26.21889 z"
       inkscape:transform-center-x="1.6796858"
       inkscape:transform-center-y="0.72228586" />
  </g>
</svg>
