<?xml version="1.0" encoding="UTF-8" standalone="no"?>
<!-- Created with Inkscape (http://www.inkscape.org/) -->

<svg
   xmlns:dc="http://purl.org/dc/elements/1.1/"
   xmlns:cc="http://creativecommons.org/ns#"
   xmlns:rdf="http://www.w3.org/1999/02/22-rdf-syntax-ns#"
   xmlns:svg="http://www.w3.org/2000/svg"
   xmlns="http://www.w3.org/2000/svg"
   xmlns:sodipodi="http://sodipodi.sourceforge.net/DTD/sodipodi-0.dtd"
   xmlns:inkscape="http://www.inkscape.org/namespaces/inkscape"
   width="210mm"
   height="297mm"
   id="svg2"
   version="1.1"
   inkscape:version="0.48.4 r9939"
   sodipodi:docname="C:\Users\Thibault\Documents\GitHub\games\TouchAndMove\Assets\Textures\weapon.svg">
  <defs
     id="defs4" />
  <sodipodi:namedview
     id="base"
     pagecolor="#ffffff"
     bordercolor="#666666"
     borderopacity="1.0"
     inkscape:pageopacity="0.0"
     inkscape:pageshadow="2"
     inkscape:zoom="0.49497475"
     inkscape:cx="482.51252"
     inkscape:cy="251.67293"
     inkscape:document-units="px"
     inkscape:current-layer="layer1"
     showgrid="false"
     inkscape:window-width="1920"
     inkscape:window-height="1137"
     inkscape:window-x="-8"
     inkscape:window-y="-8"
     inkscape:window-maximized="1" />
  <metadata
     id="metadata7">
    <rdf:RDF>
      <cc:Work
         rdf:about="">
        <dc:format>image/svg+xml</dc:format>
        <dc:type
           rdf:resource="http://purl.org/dc/dcmitype/StillImage" />
        <dc:title />
      </cc:Work>
    </rdf:RDF>
  </metadata>
  <g
     inkscape:label="Calque 1"
     inkscape:groupmode="layer"
     id="layer1">
    <path
       style="fill:none;stroke:#000000;stroke-width:1px;stroke-linecap:butt;stroke-linejoin:miter;stroke-opacity:1"
       d="m 130.30968,381.62089 c 0,0 37.37564,-2.0203 57.57869,1.01016 20.20305,3.03045 21.21321,13.13198 21.21321,13.13198 0,0 -1.01016,19.1929 -19.1929,25.25381 -18.18275,6.06092 -63.63961,2.02031 -63.63961,2.02031 l 9.09137,-10.10153 -13.13198,-8.08122 7.07107,-3.03046 -9.09138,-8.08122 16.16244,-4.04061 z"
       id="path2985"
       inkscape:connector-curvature="0" />
    <path
       style="fill:#d42aff;fill-opacity:1;stroke:#e580ff;stroke-width:0.71428573"
       d="m 148.3881,381.86198 c -5.44287,0.21274 -11.11811,0.18337 -16.40625,0.71428 1.56115,2.42302 4.38306,4.96452 5.13393,7.5 -5.037,1.61555 -10.4767,2.54299 -15.37946,4.15179 2.23699,2.58546 7.973,5.67044 8.21319,7.97818 -5.42331,1.57528 -7.4567,3.60581 -1.06664,5.86772 2.37469,1.5527 5.39542,2.99772 7.22845,4.83713 -1.95688,3.23536 -6.14632,6.04207 -7.23215,9.46429 20.53083,1.48138 41.71605,2.81839 61.80804,-2.61161 9.20051,-3.38716 15.92612,-12.64237 17.43303,-22.20982 0.0897,-7.80386 -8.85399,-11.27253 -15.20089,-12.99107 -14.55485,-2.97646 -29.73484,-2.70666 -44.53125,-2.70089 z"
       id="path2987"
       inkscape:connector-curvature="0" />
    <path
       style="fill:#d42aff;fill-opacity:1;stroke:#e580ff;stroke-width:0.71428573"
       d="m 143.87917,382.39769 c -3.486,0.055 -7.22107,0.18898 -10.49107,1.07143 1.0456,2.11749 3.7619,4.36839 3.66072,6.76339 -4.19206,1.94621 -9.45903,2.11372 -13.28125,4.41965 0.98154,3.08146 6.37008,4.16349 6.09375,7.54464 -0.9821,1.27191 -6.13018,2.06499 -3.37054,4.15178 3.21556,2.08078 7.6197,3.76593 9.64286,6.89733 -1.51776,2.99737 -5.32462,5.17541 -5.8259,8.50446 11.46781,1.84381 23.36698,1.18726 34.99928,1.01704 10.92036,-1.00241 23.48412,-0.41328 32.41144,-7.75811 5.39546,-5.17444 11.17251,-12.78941 9.21875,-20.69197 -4.2243,-8.13468 -14.74592,-9.33324 -22.90179,-10.64732 -13.34679,-1.09824 -26.76839,-1.39704 -40.15625,-1.27232 z"
       id="path2989"
       inkscape:connector-curvature="0" />
    <path
       style="fill:#d42aff;fill-opacity:1;stroke:#e580ff;stroke-width:0.71428573"
       d="m 146.80328,383.00037 c -4.20756,0.26782 -8.76689,-0.32694 -12.72321,1.00446 1.25269,1.91507 5.46928,6.0275 1.22767,7.14286 -3.33476,1.53052 -7.75236,1.78303 -10.51339,3.97322 1.17246,2.52558 5.48559,4.04263 5.51339,6.83035 -0.59992,1.54371 -4.51079,2.0022 -3.8616,3.77232 3.07354,2.52645 8.30232,3.86986 9.70982,7.83483 -1.01356,2.82374 -4.59758,4.68764 -4.77679,7.56696 7.68866,2.1161 16.03493,0.56837 23.973,0.91273 12.99485,-0.91294 27.22101,1.44493 38.97343,-5.42166 6.84937,-5.01711 14.80197,-13.68486 11.51786,-22.87946 -4.55664,-7.64618 -14.8409,-8.11497 -22.76315,-9.43456 -12.04209,-1.29031 -24.17837,-1.37882 -36.27703,-1.30205 z"
       id="path2991"
       inkscape:connector-curvature="0" />
    <path
       style="fill:#d42aff;fill-opacity:1;stroke:#e580ff;stroke-width:0.71428573"
       d="m 141.26757,383.7593 c -1.59021,0.49014 -4.81532,-0.64221 -5.75893,0.78125 0.72799,2.16682 3.67644,5.50048 0.1116,6.67411 -3.04351,1.6907 -7.20837,1.88169 -9.75446,4.10714 0.74714,2.52745 6.50732,5.10924 3.63839,7.85714 -1.24505,0.67781 -4.08254,2.0893 -1.29464,3.125 2.53927,2.38778 8.62755,3.8904 7.5,8.30357 -0.55905,2.19981 -3.82592,3.81858 -3.59375,6.00447 6.33742,1.75996 13.28749,0.34114 19.84371,0.76613 13.77431,-0.82208 28.59905,1.62501 41.38397,-4.76167 6.62005,-4.83747 14.55371,-12.39957 12.27678,-21.47321 -3.53792,-8.49419 -14.21294,-8.89752 -22.03125,-10.33482 -14.07201,-1.06647 -28.21615,-0.95868 -42.32142,-1.04911 z"
       id="path2993"
       inkscape:connector-curvature="0" />
    <path
       sodipodi:type="arc"
       style="fill:#c83737;fill-opacity:1;stroke:#000000"
       id="path2988"
       sodipodi:cx="125.71429"
       sodipodi:cy="655.57648"
       sodipodi:rx="13.571428"
       sodipodi:ry="6.7857141"
       d="m 139.28572,655.57648 a 13.571428,6.7857141 0 1 1 -27.14286,0 13.571428,6.7857141 0 1 1 27.14286,0 z" />
    <path
       style="fill:none;stroke:#000000;stroke-width:1px;stroke-linecap:butt;stroke-linejoin:miter;stroke-opacity:1"
       d="M 114.46429,651.6479 115,649.32647 l 2.5,-1.07143 2.14286,0.89286 1.78571,3.57143 c 0,0 -0.17857,0.71428 -0.17857,2.85714 0,2.14286 0.17857,2.5 0,4.10714 -0.17857,1.60715 0,3.39286 0,3.39286 l 1.25,1.42857 1.96429,-0.71428 1.78571,-1.07143"
       id="path3038"
       inkscape:connector-curvature="0" />
    <path
       style="fill:none;stroke:#000000;stroke-width:1px;stroke-linecap:butt;stroke-linejoin:miter;stroke-opacity:1"
       d="m 129.46429,648.79076 1.96428,-1.42858 1.07143,-0.17857 c 0,0 0.35714,-1.25 0.89286,0.35715 0.53571,1.60714 0.53571,2.5 0.53571,3.57142 0,1.07143 1.78572,3.75 1.78572,3.75 l 0.17857,2.67858 2.5,2.32142 1.96428,0.35715 -1.25,-2.67857 0,0"
       id="path3040"
       inkscape:connector-curvature="0" />
    <path
       style="fill:#c83737;fill-opacity:1;stroke:#ff5555;stroke-width:0.08928572"
       d="m 119.22553,650.07955 c -2.11939,0.61863 -4.29447,1.54748 -5.74777,3.25893 -0.92039,1.02659 -1.16339,2.62065 -0.43527,3.82255 1.21917,2.05534 3.55622,3.07927 5.74777,3.78348 0.62908,0.16615 1.26862,0.40205 1.90848,0.47154 0.32742,-2.86175 -0.0255,-5.7778 0.25112,-8.65513 -0.45705,-0.84356 -0.77383,-1.79756 -1.34766,-2.56697 -0.0996,-0.0951 -0.24165,-0.1323 -0.37667,-0.1144 z"
       id="path3042"
       inkscape:connector-curvature="0" />
    <path
       style="fill:#c83737;fill-opacity:1;stroke:#ff5555;stroke-width:0.08928572"
       d="m 119.26738,650.09351 c -2.2698,0.57892 -4.58758,1.6134 -6.02399,3.52957 -0.9,1.22604 -0.81671,3.02927 0.18825,4.16126 1.66813,2.03495 4.31389,2.91499 6.77324,3.58149 0.21728,0.10436 0.57505,0.13284 0.56362,-0.19253 0.0279,-0.71612 0.17448,-1.39499 0.12403,-2.13167 0.0439,-1.73885 -0.0859,-3.50622 0.0629,-5.22882 0.1909,-1.25629 -0.61459,-2.36223 -1.18303,-3.4068 -0.11368,-0.16796 -0.28204,-0.34448 -0.50503,-0.3125 z"
       id="path3044"
       inkscape:connector-curvature="0" />
    <path
       style="fill:#c83737;fill-opacity:1;stroke:#ff5555;stroke-width:0.08928572"
       d="m 119.24785,650.09351 c -1.47166,0.29497 -2.86255,0.98124 -4.1462,1.74944 -0.9277,0.70084 -1.87486,1.51985 -2.3298,2.61718 -0.19097,1.13767 -0.19415,2.48961 0.67243,3.35938 1.71243,2.04369 4.34996,2.91952 6.84431,3.59096 0.43563,0.16149 0.60593,-0.34438 0.56361,-0.68638 0.0812,-2.63914 0.16867,-5.28611 0.0781,-7.92411 -0.31881,-0.89218 -0.68457,-1.8038 -1.26674,-2.55022 -0.11629,-0.0999 -0.26149,-0.17656 -0.41574,-0.15625 z"
       id="path3046"
       inkscape:connector-curvature="0" />
    <path
       style="fill:#c83737;fill-opacity:1;stroke:#ff5555;stroke-width:0.08928572"
       d="m 119.20879,650.11583 c -1.53725,0.25085 -2.95686,1.01848 -4.27455,1.8164 -0.86581,0.73106 -1.81643,1.52845 -2.20704,2.62556 -0.0854,1.11638 -0.18213,2.44932 0.71987,3.28962 1.71377,2.00994 4.31435,2.89638 6.78292,3.5798 0.49647,0.1409 0.69377,-0.42075 0.63483,-0.81463 0.0968,-2.58843 0.0919,-5.18248 0.11015,-7.77075 -0.39957,-0.91368 -0.68856,-1.95876 -1.40346,-2.67578 -0.11123,-0.0574 -0.24048,-0.0571 -0.36272,-0.0502 z"
       id="path3048"
       inkscape:connector-curvature="0" />
    <path
       style="fill:#c83737;fill-opacity:1;stroke:#ff5555;stroke-width:0.08928572"
       d="m 118.73446,650.53993 c -1.05562,-0.11513 -2.02832,0.29069 -2.90617,0.83216 -1.2257,0.7698 -2.49017,1.70689 -3.07597,3.06851 -0.10038,1.07177 -0.24878,2.34284 0.51618,3.21987 1.07999,1.26669 2.48508,2.23261 4.05011,2.8188 0.97283,0.36799 1.95818,0.76553 2.97835,0.96747 0.52772,0.0503 0.59945,-0.53635 0.57478,-0.92634 0.0988,-2.54654 0.11004,-5.09854 0.13671,-7.64509 -0.37444,-0.71101 -0.48702,-1.598 -1.04352,-2.19308 -0.36321,-0.22846 -0.82606,-0.11493 -1.23047,-0.1423 z"
       id="path3050"
       inkscape:connector-curvature="0" />
    <path
       style="fill:#c83737;fill-opacity:1;stroke:#ff5555;stroke-width:0.08928572"
       d="m 118.33546,650.5204 c -1.73875,0.056 -3.19635,1.21478 -4.44196,2.31027 -0.68588,0.64966 -1.3445,1.5001 -1.21094,2.51116 -0.0514,0.88633 0.0305,1.87567 0.73661,2.49442 1.35746,1.5353 3.20566,2.51355 5.13672,3.125 0.66198,0.1605 1.34989,0.60392 2.04241,0.42411 0.43265,-0.3132 0.18971,-0.98271 0.29944,-1.43687 0.0853,-2.32767 0.13193,-4.65954 0.16931,-6.98668 -0.37517,-0.73232 -0.47969,-1.65643 -1.08259,-2.24609 -0.48624,-0.26307 -1.11099,-0.16662 -1.649,-0.19532 z"
       id="path3052"
       inkscape:connector-curvature="0" />
  </g>
</svg>
